<?xml version="1.0" encoding="utf-8"?>
<!-- Generator: Adobe Illustrator 16.0.0, SVG Export Plug-In . SVG Version: 6.00 Build 0)  -->
<!DOCTYPE svg PUBLIC "-//W3C//DTD SVG 1.1//EN" "http://www.w3.org/Graphics/SVG/1.1/DTD/svg11.dtd">
<svg version="1.1" id="Layer_1" xmlns="http://www.w3.org/2000/svg" xmlns:xlink="http://www.w3.org/1999/xlink" x="0px" y="0px"
	 width="200px" height="200px" viewBox="0 0 200 200" enable-background="new 0 0 200 200" xml:space="preserve">
<g>
	<path fill="#FFFFFF" d="M185.283,61.255c0-2.266-1.133-4.834-2.846-6.521l-14.2-14.212c-1.687-1.698-4.255-2.831-6.521-2.831
		c-2.293,0-4.834,1.133-6.547,2.832l-76.224,76.235L45.648,83.476c-1.686-1.699-4.254-2.832-6.521-2.832
		c-2.569,0-4.833,1.133-6.546,2.832l-14.2,14.214c-1.712,1.686-2.845,4.253-2.845,6.519c0,2.279,1.132,4.836,2.845,6.533
		l54.018,53.999c1.713,1.715,4.254,2.875,6.547,2.875c2.265-0.002,4.807-1.162,6.52-2.875l96.972-96.951
		C184.15,66.09,185.283,63.536,185.283,61.255z"/>
</g>
</svg>
