<?xml version="1.0" encoding="utf-8"?>
<!-- Generator: Adobe Illustrator 16.0.0, SVG Export Plug-In . SVG Version: 6.00 Build 0)  -->
<!DOCTYPE svg PUBLIC "-//W3C//DTD SVG 1.1//EN" "http://www.w3.org/Graphics/SVG/1.1/DTD/svg11.dtd">
<svg version="1.1" id="Layer_1" xmlns="http://www.w3.org/2000/svg" xmlns:xlink="http://www.w3.org/1999/xlink" x="0px" y="0px"
	 width="271.971px" height="134.547px" viewBox="0 0 271.971 134.547" enable-background="new 0 0 271.971 134.547"
	 xml:space="preserve">
<path fill="#FFFFFF" d="M130.088,61.735h3.146V44.161h-3.465v-1.599c3.838-0.107,7.462-0.32,10.819-0.64V61.75h3.306v1.599h-13.806
	V61.735L130.088,61.735z"/>
<path fill="#FFFFFF" d="M158.795,50.45V46.4c0-2.239-1.065-3.198-3.518-3.198c-2.346,0-3.519,1.013-3.519,3.198v4.05H158.795z
	 M165.99,56.74c-1.76,4.903-5.117,7.195-10.5,7.195c-7.462,0-12.152-4.317-12.152-10.766c0-6.343,5.011-11.247,12.046-11.247
	c6.396,0,10.341,3.785,10.341,9.861v0.266H151.76v5.224c0,3.731,0.854,5.33,4.264,5.33c4.265,0,7.195-2.132,8.741-6.29L165.99,56.74
	z"/>
<path fill="#FFFFFF" d="M168.868,61.75V30.304h-3.465v-1.6c3.838-0.106,7.463-0.319,10.819-0.639V61.75h3.357v1.599h-13.804V61.75
	H168.868z"/>
<path fill="#FFFFFF" d="M195.74,50.983c0-4.69-2.452-7.515-5.916-7.515c-2.239,0-2.612,1.173-2.612,3.891v11.086
	c0,2.771,0.428,4.051,2.612,4.051c3.464,0,5.916-2.826,5.916-7.515V50.983z M195.74,60.044c-1.599,2.665-3.891,3.944-6.876,3.944
	c-5.543,0-9.807-4.743-9.807-10.98c0-6.448,4.211-11.086,9.807-11.086c2.985,0,5.277,1.333,6.876,3.998V30.304h-4.104v-1.599
	c4.426-0.106,8.208-0.32,11.301-0.639V61.75h2.878v1.598H195.74V60.044z"/>
<path fill="#FFFFFF" d="M160.73,82.477c2.292,0,2.878-1.064,2.878-3.625v-4.156c0-2.559-0.586-3.57-2.878-3.57
	s-2.878,1.014-2.878,3.57v4.156C157.853,81.411,158.438,82.477,160.73,82.477 M152.896,96.334c0,3.411,2.665,5.33,7.622,5.33
	c6.448,0,10.073-2.878,10.073-6.289c0-1.865-1.227-2.132-4.265-2.132h-12.312C153.269,94.202,152.896,95.215,152.896,96.334
	 M149.111,87.753c0-2.825,1.812-4.903,4.957-5.489v-0.267c-2.186-0.906-3.411-2.665-3.411-4.904c0-3.891,3.838-7.248,9.913-7.248
	c3.092,0,5.65,0.8,7.675,2.451c1.174-1.972,2.188-2.983,3.572-2.983c1.492,0,2.558,0.959,2.558,2.611
	c0,1.332-0.853,2.291-2.078,2.291c-1.651,0-2.024-1.279-2.559-1.279c-0.214,0-0.319,0.107-0.479,0.32
	c1.014,1.174,1.438,2.238,1.438,3.624c0,4.211-3.678,6.823-10.127,6.823c-2.238,0-3.997-0.268-5.275-0.268
	c-2.452,0-3.679,0.692-3.679,1.864c0,1.439,1.6,1.439,5.224,1.439h9.062c4.852,0,6.981,1.438,6.981,5.917
	c0,6.289-4.583,10.285-12.95,10.285c-7.144,0-10.82-2.077-10.82-5.702c0-1.812,1.013-3.091,3.198-4.157v-0.32
	C150.178,91.697,149.111,89.992,149.111,87.753"/>
<path fill="#FFFFFF" d="M187.38,80.611c-4.156,0-5.81,1.013-5.81,4.051c0,2.931,0.8,4.211,2.932,4.211
	c2.026,0,3.52-1.439,3.52-3.785v-4.477H187.38z M180.186,91.805c-3.624,0-5.598-1.92-5.598-5.224c0-4.317,4.796-7.409,13.433-7.409
	v-5.062c0-2.186-0.642-2.877-3.571-2.877c-1.812,0-2.718,0.426-2.718,1.225c0,0.533,0.959,1.279,0.959,2.771
	c0,2.024-1.279,3.145-3.571,3.145c-2.024,0-3.146-1.172-3.146-3.251c0-3.304,3.466-5.276,9.859-5.276
	c2.985,0,5.225,0.479,6.557,1.174c2.078,1.064,2.187,2.397,2.187,4.85v10.767c0,1.228,0.479,1.812,1.652,1.812
	c0.691,0,0.959-0.479,1.332-0.479c0.318,0,0.532,0.268,0.532,0.532c0,0.906-1.864,3.306-5.011,3.306
	c-2.292,0-4.157-1.334-4.902-3.625C186.048,90.738,183.649,91.805,180.186,91.805"/>
<path fill="#FFFFFF" d="M202.282,89.672V72.03h-3.304V70.43c3.251,0,6.715-0.16,10.444-0.426v5.275
	c1.974-3.678,4.531-5.329,8.315-5.329c3.891,0,5.969,1.759,6.076,5.17c1.972-3.571,4.529-5.17,8.368-5.17
	c2.396,0,4.104,0.64,5.223,1.973c0.8,0.959,0.906,2.238,0.906,3.783v1.546v12.419h3.251v1.599h-13.218v-1.599h2.771V75.016
	c0-1.92-0.64-2.771-2.185-2.771c-2.452,0-5.171,3.305-5.171,7.515v9.914h2.61v1.599h-12.365v-1.599h2.72V75.016
	c0-1.92-0.641-2.771-2.187-2.771c-2.452,0-5.062,3.41-5.062,7.515v9.914h2.61v1.599h-12.685v-1.599L202.282,89.672L202.282,89.672z"
	/>
<path fill="#FFFFFF" d="M256.179,78.372v-4.05c0-2.239-1.066-3.198-3.52-3.198c-2.345,0-3.518,1.013-3.518,3.198v4.05H256.179z
	 M263.374,84.662c-1.759,4.902-5.117,7.195-10.5,7.195c-7.462,0-12.151-4.317-12.151-10.768c0-6.343,5.01-11.246,12.046-11.246
	c6.395,0,10.34,3.784,10.34,9.86v0.267h-13.965v5.225c0,3.729,0.853,5.33,4.264,5.33c4.265,0,7.196-2.133,8.741-6.291
	L263.374,84.662z"/>
<path fill="#FFFFFF" d="M121.305,43.988h-3.389v-1.613h3.389v-1.13c0-7.959,4.947-13.552,11.186-13.552
	c3.872,0,6.292,1.936,6.292,4.625c0,2.205-1.237,3.442-3.389,3.442c-1.881,0-3.228-1.237-3.228-3.011
	c0-1.614,1.399-2.205,1.399-2.797c0-0.377-0.592-0.753-1.561-0.753c-2.15,0-3.441,1.721-3.441,5.055c0,2.42,0.162,4.464,0.162,6.077
	v2.091h4.624v1.735h-4.624v17.578h3.764v1.614h-14.305v-1.614h3.119L121.305,43.988L121.305,43.988z"/>
<path fill="#FFFFFF" d="M106.756,75.448c-0.171-0.021-0.343-0.04-0.514-0.062c0,0.426-0.132,0.909,0.025,1.266
	c0.442,1.013,1.777,1.648,2.957,1.459C108.374,77.193,107.565,76.32,106.756,75.448"/>
<path fill="#FFFFFF" d="M37.92,63.747c-0.281-0.024-0.479-0.065-0.675-0.053c-0.25,0.016-0.502,0.055-0.745,0.115
	c-8.625,2.146-15.751,6.732-21.438,13.493c-4.665,5.546-4.975,12.497-0.981,18.529c3.474,5.245,8.562,8.396,14.299,10.569
	c4.314,1.637,8.79,2.563,13.502,2.459c-0.419-1.978-0.785-3.844-1.234-5.691c-0.069-0.282-0.484-0.595-0.797-0.682
	c-0.677-0.184-1.393-0.221-2.088-0.334c-5.315-0.864-10.419-2.322-14.934-5.396c-6.364-4.33-7.839-10.822-3.837-17.419
	c3.403-5.608,8.401-9.33,14.688-10.979C36.305,67.668,37.562,66.415,37.92,63.747 M37.042,69.148
	c-0.286-0.049-1.366,0.017-1.494,0.053c-5.562,1.523-10.509,4.152-13.897,8.91c-3.308,4.644-3.526,10.951,1.499,15.177
	c2.605,2.192,5.709,3.444,8.965,4.254c2.466,0.614,4.103,0.937,6.682,1.429C37.29,94.543,34.658,80.005,37.042,69.148
	 M40.363,58.194c-0.482,0-0.829-0.037-1.166,0.007c-0.801,0.105-1.614,0.183-2.393,0.384C25.41,61.537,15.896,67.449,8.773,76.88
	c-4.229,5.601-6.2,11.933-4.503,18.966c2.026,8.395,7.237,14.141,15.098,17.613c5.446,2.409,11.179,3.706,17.026,4.538
	c2.79,0.397,5.622,0.503,8.618,0.756c-0.564-1.627-0.979-3.024-1.553-4.354c-0.178-0.412-0.764-0.871-1.201-0.912
	c-5.745-0.539-11.415-1.467-16.847-3.471c-5.058-1.867-9.669-4.5-12.949-8.916c-4.851-6.529-5.063-14.981-0.229-22.459
	c5.931-9.171,14.845-14.057,25.27-16.445c0.907-0.208,1.436-0.485,1.72-1.382C39.495,59.956,39.937,59.154,40.363,58.194
	 M64.028,133.623c-3.061,0.736-3.968,1.548-4.926,0.195c-0.395-0.479-0.979-1.483-0.979-1.483
	c-12.482-22.962-18.205-46.911-13.387-72.897c-0.182-0.026-0.364-0.053-0.546-0.079c-0.849,3.078-1.888,6.118-2.504,9.243
	c-1.116,5.656-1.229,11.403-0.648,17.133c1.027,10.132,3.492,19.935,7.143,29.432c1.406,3.659,3.019,7.238,4.643,11.105
	c-1.205,0-2.436,0.047-3.664-0.008c-7.688-0.344-15.324-1.109-22.799-3.055c-5.552-1.443-10.894-3.345-15.505-6.93
	c-5.991-4.656-9.95-10.58-10.701-18.188c-0.745-7.547,1.22-14.608,5.512-20.841C13.2,66.312,23.761,59.838,36.624,56.957
	c0.638-0.143,1.418-0.415,2.031-0.603c2.789-0.853,7.034-6.945,7.235-7.224c1.082-1.493,2.372-2.922,3.069-4.591
	c2.639-6.309,5.569-12.438,9.601-17.997c0.377-0.52,0.813-1.145,0.845-1.741c0.166-3.094,2.045-5.331,3.733-7.634
	c2.949-4.026,6.175-7.818,10.271-10.748c2.036-1.457,4.159-2.733,6.871-2.161c0.274,0.058,0.684-0.277,0.958-0.514
	C83.321,1.947,85.648,0.629,87.89,0c-1.643,1.296-3.6,2.771-5.457,4.361c-0.387,0.331-0.403,1.092-0.597,1.653
	c-0.471,1.366-0.644,2.958-1.472,4.054c-2.561,3.388-5.275,6.674-8.12,9.827c-1.797,1.992-3.902,3.714-5.934,5.482
	c-1.265,1.099-2.656,2.012-4.466,2.005c-0.375-0.001-0.866,0.268-1.11,0.569c-3.543,4.381-6.468,9.141-8.632,14.384
	c7.433-6.914,16.306-11.419,25.406-15.557c0.315-0.143,0.771-0.266,0.885-0.521c0.945-2.113,2.912-2.844,4.814-3.678
	c4.986-2.183,9.977-4.367,15.36-5.397c2.468-0.473,4.922-1.051,7.36,0.474c0.63,0.395,1.842-0.131,2.784-0.245
	c3.639-0.442,7.133,0.088,10.903,1.606c-2.469-0.313-4.52-0.609-6.58-0.818c-0.905-0.092-1.841-0.1-2.74,0.019
	c-1.649,0.217-3.143,0.549-4.016,2.384c-1.121,2.357-3.412,3.573-5.713,4.54c-5.355,2.248-10.856,4.068-16.63,4.881
	c-2.548,0.238-2.43-0.551-3.583-0.574c-1.218-0.024-2.403,0.141-3.514,0.506c-6.242,2.053-11.651,5.581-16.633,9.804
	c-4.089,3.467-7.575,7.486-10.876,11.697c-1.349,1.719-1.541,3.73-1.834,5.665c-0.521,3.445-0.847,6.939-0.972,10.423
	c-0.368,10.208,1.477,20.123,4.354,29.863c3.315,11.218,8.062,21.847,13.437,32.212C64.689,130.337,66.471,132.85,64.028,133.623"/>
<path fill="#FFFFFF" d="M57.201,63.049c1.5-1.335,2.816-2.606,4.236-3.749c4.066-3.276,8.703-5.178,13.96-5.03
	c3.887,0.109,7.521,1.365,10.91,3.303C92,60.831,96.521,65.376,100.441,70.55c0.776,1.025,1.639,0.961,2.492,0.568
	c1.153-0.533,0.546-1.435,0.172-2.2c-0.179-0.361-0.411-0.699-0.645-1.029c-3.077-4.396-6.647-8.332-10.971-11.531
	c-4.975-3.683-10.446-6.302-16.737-6.308C66.493,50.041,60.195,55.019,57.201,63.049 M55.126,70.357
	c0.646-0.48,1.161-0.889,1.699-1.263c3.567-2.479,7.286-4.521,11.822-4.504c3.523,0.014,6.717,1.17,9.471,3.169
	c6.389,4.641,12.627,9.486,18.911,14.27c1.475,1.121,2.376,0.951,3.025-0.768c0.263-0.695,0.436-1.464,0.462-2.205
	c0.11-3.158-3.117-7.695-6.361-8.969c-5.678-2.227-11.381-4.362-16.787-7.258c-2.117-1.135-4.613-1.861-7.007-2.119
	c-4.71-0.507-8.716,1.391-12.371,4.339C56.246,66.458,55.176,67.979,55.126,70.357 M101.012,85.475
	c4.747,4.469,10.124,7.361,16.077,9.801c4.483,1.838,9.169,2.893,13.993,2.972c3.601,0.058,5.602-0.272,8.359-1.522
	c-0.322,0.322-2.963,3.465-10.455,2.95c-7.02-0.685-13.9-2.116-20.256-5.223c-3.841-1.877-7.122-3.375-11.058-6.591
	c-0.343-0.279-1.676-1.293-3.071-2.715C88.44,79.509,82.768,73.902,76.64,68.848c-5.034-4.153-13.388-2.621-17.474,2.575
	c-2.713,3.451-4.024,7.421-4.423,11.729c0.678,21.906,12.918,40.604,10.293,41.781c-0.51,0.168-1.158-0.807-1.333-1.156
	c-6.049-12.057-11.033-23.971-13.592-37.319c-1.059-5.522-1.53-11.073-1.119-16.638c0.562-7.61,2.769-14.629,8.887-19.793
	c3.521-2.97,7.659-4.464,12.234-4.643c8.989-0.351,16.493,3.277,23.254,8.839c5.411,4.452,9.47,9.968,12.814,16.072
	c0.908,1.46-0.412,2.612-0.544,2.766c-1.521,1.737-2.624,3.481-2.068,6.07C104.097,81.584,102.531,83.557,101.012,85.475"/>
<path fill="#FFFFFF" d="M107.361,72.376c7.403,7.081,14.989,13.938,23.571,19.649c-0.03,0.091-0.504-0.131-0.729-0.248
	c-8.742-4.625-16.247-10.84-23.031-17.971c-0.256-0.269-0.438-0.717-0.302-1.172C107,72.365,107.133,72.326,107.361,72.376"/>
<path fill="#FFFFFF" d="M106.756,75.448c0.81,0.872,1.618,1.745,2.469,2.663c-1.18,0.189-2.515-0.446-2.957-1.459
	c-0.157-0.355-0.269-1-0.025-1.266C106.44,75.218,106.671,75.322,106.756,75.448"/>
<path fill="#FFFFFF" d="M242.055,37.282c0,1.021,0.975,1.439,1.67,1.439c-0.511-0.371-0.695-0.835-0.695-1.439
	c0-0.695,0.186-1.299,0.695-1.623C242.844,35.659,242.055,36.216,242.055,37.282 M244.838,41.458c0,0-2.134,1.624-3.432,2.458
	c-1.066,0.65-6.771,3.897-8.304,6.402c-0.603,0.928-0.974,2.273-0.974,3.897c0,0,0.789-1.717,1.81-3.108
	c1.345-1.995,8.068-6.124,9.044-7.051C243.911,43.174,244.838,41.458,244.838,41.458 M235.423,31.948
	c-1.577-1.624-3.107-2.459-4.917-2.459c-2.689,0-6.816,1.854-6.816,5.66c0,2.226,0.603,3.154,1.993,4.453
	c-0.881-1.252-1.021-2.412-1.021-3.85c0-3.433,3.665-5.196,5.611-5.196C231.944,30.556,233.707,30.881,235.423,31.948
	 M226.007,41.829c-4.267,0-7.977,3.943-7.977,9.509c0,6.68,5.89,10.902,10.48,11.18c-3.293-0.974-8.766-3.293-8.766-11.226
	c0-4.361,3.572-8.443,6.4-8.443c1.206,0,1.529-0.139,4.175,0.325C230.321,43.174,228.883,41.829,226.007,41.829 M236.582,33.525
	c-0.928,0.696-1.345-1.809-5.241-1.809c-2.968,0-5.563,2.134-5.563,5.057c0,1.577,0.646,2.969,1.438,3.943
	c1.066,0.324,1.901,0.51,3.061,1.159c1.254,0.65,3.017,2.552,2.552,3.108c-0.371,0.464-1.159-1.021-3.85-1.021
	c-5.103,0-7.051,4.732-7.051,8.397c0,5.938,4.128,9.881,9.556,9.881c5.333,0,9.926-3.386,9.926-8.489
	c0-2.227-1.021-3.989-2.319-5.382c-1.67,1.299-3.71,2.552-5.519,4.964c-2.088,2.738-0.743,4.268-1.624,4.268
	c-0.882,0-1.113-4.128-0.511-5.66c1.669-4.453,4.916-5.705,6.957-7.236c2.782-1.995,7.838-4.546,6.957-5.567
	c-0.231-0.186-0.324-0.186-0.604-0.092c-0.186,0.092-0.557,0.371-1.392,0.371c-1.299,0-2.181-1.067-2.181-2.227
	c0-1.392,0.929-2.273,2.366-2.273c2.317,0,2.829,2.18,2.829,4.082c0,3.479-2.134,5.196-4.731,7.469l-1.205,1.021
	c1.205,1.995,2.181,3.526,2.181,6.077c0,6.263-6.076,10.02-12.523,10.02c-7.235,0-13.312-5.102-13.312-12.571
	c0-5.288,3.804-10.021,8.951-10.392c-2.04-1.299-3.106-2.875-3.106-5.381c0-3.897,3.571-6.772,7.467-6.772
	C234.263,28.469,237.788,32.689,236.582,33.525"/>
<path fill="#FFFFFF" d="M242.055,37.282c0,1.021,0.975,1.439,1.67,1.439c-0.511-0.371-0.695-0.835-0.695-1.439
	c0-0.695,0.186-1.299,0.695-1.623C242.844,35.659,242.055,36.216,242.055,37.282z M244.838,41.458c0,0-2.134,1.624-3.432,2.458
	c-1.066,0.65-6.771,3.897-8.304,6.402c-0.603,0.928-0.974,2.273-0.974,3.897c0,0,0.789-1.717,1.81-3.108
	c1.345-1.995,8.068-6.124,9.044-7.051C243.911,43.174,244.838,41.458,244.838,41.458z M235.423,31.948
	c-1.577-1.624-3.107-2.459-4.917-2.459c-2.689,0-6.816,1.854-6.816,5.66c0,2.226,0.603,3.154,1.993,4.453
	c-0.881-1.252-1.021-2.412-1.021-3.85c0-3.433,3.665-5.196,5.611-5.196C231.944,30.556,233.707,30.881,235.423,31.948z
	 M226.007,41.829c-4.267,0-7.977,3.943-7.977,9.509c0,6.68,5.89,10.902,10.48,11.18c-3.293-0.974-8.766-3.293-8.766-11.226
	c0-4.361,3.572-8.443,6.4-8.443c1.206,0,1.529-0.139,4.175,0.325C230.321,43.174,228.883,41.829,226.007,41.829z M236.582,33.525
	c-0.928,0.696-1.345-1.809-5.241-1.809c-2.968,0-5.563,2.134-5.563,5.057c0,1.577,0.646,2.969,1.438,3.943
	c1.066,0.324,1.901,0.51,3.061,1.159c1.254,0.65,3.017,2.552,2.552,3.108c-0.371,0.464-1.159-1.021-3.85-1.021
	c-5.103,0-7.051,4.732-7.051,8.397c0,5.938,4.128,9.881,9.556,9.881c5.333,0,9.926-3.386,9.926-8.489
	c0-2.227-1.021-3.989-2.319-5.382c-1.67,1.299-3.71,2.552-5.519,4.964c-2.088,2.738-0.743,4.268-1.624,4.268
	c-0.882,0-1.113-4.128-0.511-5.66c1.669-4.453,4.916-5.705,6.957-7.236c2.782-1.995,7.838-4.546,6.957-5.567
	c-0.231-0.186-0.324-0.186-0.604-0.092c-0.186,0.092-0.557,0.371-1.392,0.371c-1.299,0-2.181-1.067-2.181-2.227
	c0-1.392,0.929-2.273,2.366-2.273c2.317,0,2.829,2.18,2.829,4.082c0,3.479-2.134,5.196-4.731,7.469l-1.205,1.021
	c1.205,1.995,2.181,3.526,2.181,6.077c0,6.263-6.076,10.02-12.523,10.02c-7.235,0-13.312-5.102-13.312-12.571
	c0-5.288,3.804-10.021,8.951-10.392c-2.04-1.299-3.106-2.875-3.106-5.381c0-3.897,3.571-6.772,7.467-6.772
	C234.263,28.469,237.788,32.689,236.582,33.525z"/>
<path fill="#FFFFFF" d="M180.403,102.854l-1.207,3.33h2.414L180.403,102.854z M182.538,108.947l-0.475-1.312h-3.319l-0.487,1.312
	h-1.88l2.993-7.74h2.066l2.981,7.74H182.538z"/>
<path fill="#FFFFFF" d="M184.757,105.859v-4.652h1.672v4.595c0,1.079,0.627,1.822,1.821,1.822c1.195,0,1.812-0.743,1.812-1.822
	v-4.595h1.683v4.643c0,1.926-1.137,3.236-3.493,3.236C185.895,109.086,184.757,107.764,184.757,105.859"/>
<path fill="#FFFFFF" d="M192.742,107.855l0.896-1.254c0.545,0.568,1.392,1.045,2.46,1.045c0.904,0,1.346-0.418,1.346-0.858
	c0-1.369-4.456-0.429-4.456-3.343c0-1.287,1.114-2.355,2.937-2.355c1.229,0,2.251,0.372,3.018,1.08l-0.917,1.207
	c-0.627-0.581-1.462-0.848-2.251-0.848c-0.708,0-1.104,0.312-1.104,0.777c0,1.229,4.444,0.405,4.444,3.295
	c0,1.416-1.009,2.483-3.098,2.483C194.529,109.086,193.463,108.587,192.742,107.855"/>
<polygon fill="#FFFFFF" points="201.866,108.947 201.866,102.657 199.603,102.657 199.603,101.207 205.776,101.207 205.776,102.657 
	203.524,102.657 203.524,108.947 "/>
<path fill="#FFFFFF" d="M211.371,103.702c0-0.65-0.499-1.045-1.16-1.045h-1.729v2.089h1.729
	C210.872,104.746,211.371,104.352,211.371,103.702 M211.209,108.947l-1.521-2.75h-1.207v2.75h-1.647v-7.74h3.62
	c1.613,0,2.601,1.057,2.601,2.495c0,1.368-0.858,2.1-1.694,2.297l1.741,2.948H211.209z"/>
<path fill="#FFFFFF" d="M217.5,102.854l-1.207,3.33h2.414L217.5,102.854z M219.635,108.947l-0.476-1.312h-3.318l-0.487,1.312h-1.88
	l2.993-7.74h2.065l2.982,7.74H219.635z"/>
<polygon fill="#FFFFFF" points="222.236,108.947 222.236,101.207 223.885,101.207 223.885,107.497 227.156,107.497 227.156,108.947 
	"/>
<rect x="228.308" y="101.207" fill="#FFFFFF" width="1.647" height="7.74"/>
<path fill="#FFFFFF" d="M234.69,102.854l-1.207,3.33h2.414L234.69,102.854z M236.825,108.947l-0.475-1.312h-3.319l-0.487,1.312
	h-1.881l2.994-7.74h2.066l2.98,7.74H236.825z"/>
<rect x="242.399" y="101.207" fill="#FFFFFF" width="1.646" height="7.74"/>
<polygon fill="#FFFFFF" points="250.916,108.947 247.227,103.898 247.227,108.947 245.578,108.947 245.578,101.207 247.273,101.207 
	250.858,106.068 250.858,101.207 252.507,101.207 252.507,108.947 "/>
<path fill="#FFFFFF" d="M253.669,105.082c0-2.379,1.799-4.003,4.12-4.003c1.706,0,2.691,0.929,3.236,1.892l-1.415,0.695
	c-0.324-0.626-1.021-1.125-1.821-1.125c-1.405,0-2.427,1.079-2.427,2.541c0,1.463,1.021,2.541,2.427,2.541
	c0.8,0,1.497-0.486,1.821-1.125l1.415,0.686c-0.558,0.963-1.53,1.902-3.236,1.902C255.468,109.086,253.669,107.462,253.669,105.082"
	/>
<path fill="#FFFFFF" d="M261.794,108.135c0-0.511,0.43-0.939,0.939-0.939s0.939,0.43,0.939,0.939s-0.43,0.939-0.939,0.939
	S261.794,108.645,261.794,108.135"/>
<path fill="#FFFFFF" d="M271.496,74.122v-3.077l-1.268,3.077h-0.137l-1.268-3.077v3.077h-0.474v-3.72h0.727l1.082,2.705l1.082-2.705
	h0.728v3.72H271.496z M266.694,70.842v3.28h-0.474v-3.28h-1.05v-0.439h2.571v0.439H266.694z"/>
<path fill="#FFFFFF" d="M130.088,61.735h3.146V44.161h-3.465v-1.599c3.838-0.107,7.462-0.32,10.819-0.64V61.75h3.306v1.599h-13.806
	V61.735L130.088,61.735z"/>
<path fill="#FFFFFF" d="M158.795,50.45V46.4c0-2.239-1.065-3.198-3.518-3.198c-2.346,0-3.519,1.013-3.519,3.198v4.05H158.795z
	 M165.99,56.74c-1.76,4.903-5.117,7.195-10.5,7.195c-7.462,0-12.152-4.317-12.152-10.766c0-6.343,5.011-11.247,12.046-11.247
	c6.396,0,10.341,3.785,10.341,9.861v0.266H151.76v5.224c0,3.731,0.854,5.33,4.264,5.33c4.265,0,7.195-2.132,8.741-6.29L165.99,56.74
	z"/>
<path fill="#FFFFFF" d="M168.868,61.75V30.304h-3.465v-1.6c3.838-0.106,7.463-0.319,10.819-0.639V61.75h3.357v1.599h-13.804V61.75
	H168.868z"/>
<path fill="#FFFFFF" d="M195.74,50.983c0-4.69-2.452-7.515-5.916-7.515c-2.239,0-2.612,1.173-2.612,3.891v11.086
	c0,2.771,0.428,4.051,2.612,4.051c3.464,0,5.916-2.826,5.916-7.515V50.983z M195.74,60.044c-1.599,2.665-3.891,3.944-6.876,3.944
	c-5.543,0-9.807-4.743-9.807-10.98c0-6.448,4.211-11.086,9.807-11.086c2.985,0,5.277,1.333,6.876,3.998V30.304h-4.104v-1.599
	c4.426-0.106,8.208-0.32,11.301-0.639V61.75h2.878v1.598H195.74V60.044z"/>
<path fill="#FFFFFF" d="M160.73,82.477c2.292,0,2.878-1.064,2.878-3.625v-4.156c0-2.559-0.586-3.57-2.878-3.57
	s-2.878,1.014-2.878,3.57v4.156C157.853,81.411,158.438,82.477,160.73,82.477 M152.896,96.334c0,3.411,2.665,5.33,7.622,5.33
	c6.448,0,10.073-2.878,10.073-6.289c0-1.865-1.227-2.132-4.265-2.132h-12.312C153.269,94.202,152.896,95.215,152.896,96.334
	 M149.111,87.753c0-2.825,1.812-4.903,4.957-5.489v-0.267c-2.186-0.906-3.411-2.665-3.411-4.904c0-3.891,3.838-7.248,9.913-7.248
	c3.092,0,5.65,0.8,7.675,2.451c1.174-1.972,2.188-2.983,3.572-2.983c1.492,0,2.558,0.959,2.558,2.611
	c0,1.332-0.853,2.291-2.078,2.291c-1.651,0-2.024-1.279-2.559-1.279c-0.214,0-0.319,0.107-0.479,0.32
	c1.014,1.174,1.438,2.238,1.438,3.624c0,4.211-3.678,6.823-10.127,6.823c-2.238,0-3.997-0.268-5.275-0.268
	c-2.452,0-3.679,0.692-3.679,1.864c0,1.439,1.6,1.439,5.224,1.439h9.062c4.852,0,6.981,1.438,6.981,5.917
	c0,6.289-4.583,10.285-12.95,10.285c-7.144,0-10.82-2.077-10.82-5.702c0-1.812,1.013-3.091,3.198-4.157v-0.32
	C150.178,91.697,149.111,89.992,149.111,87.753"/>
<path fill="#FFFFFF" d="M187.38,80.611c-4.156,0-5.81,1.013-5.81,4.051c0,2.931,0.8,4.211,2.932,4.211
	c2.026,0,3.52-1.439,3.52-3.785v-4.477H187.38z M180.186,91.805c-3.624,0-5.598-1.92-5.598-5.224c0-4.317,4.796-7.409,13.433-7.409
	v-5.062c0-2.186-0.642-2.877-3.571-2.877c-1.812,0-2.718,0.426-2.718,1.225c0,0.533,0.959,1.279,0.959,2.771
	c0,2.024-1.279,3.145-3.571,3.145c-2.024,0-3.146-1.172-3.146-3.251c0-3.304,3.466-5.276,9.859-5.276
	c2.985,0,5.225,0.479,6.557,1.174c2.078,1.064,2.187,2.397,2.187,4.85v10.767c0,1.228,0.479,1.812,1.652,1.812
	c0.691,0,0.959-0.479,1.332-0.479c0.318,0,0.532,0.268,0.532,0.532c0,0.906-1.864,3.306-5.011,3.306
	c-2.292,0-4.157-1.334-4.902-3.625C186.048,90.738,183.649,91.805,180.186,91.805"/>
<path fill="#FFFFFF" d="M202.282,89.672V72.03h-3.304V70.43c3.251,0,6.715-0.16,10.444-0.426v5.275
	c1.974-3.678,4.531-5.329,8.315-5.329c3.891,0,5.969,1.759,6.076,5.17c1.972-3.571,4.529-5.17,8.368-5.17
	c2.396,0,4.104,0.64,5.223,1.973c0.8,0.959,0.906,2.238,0.906,3.783v1.546v12.419h3.251v1.599h-13.218v-1.599h2.771V75.016
	c0-1.92-0.64-2.771-2.185-2.771c-2.452,0-5.171,3.305-5.171,7.515v9.914h2.61v1.599h-12.365v-1.599h2.72V75.016
	c0-1.92-0.641-2.771-2.187-2.771c-2.452,0-5.062,3.41-5.062,7.515v9.914h2.61v1.599h-12.685v-1.599L202.282,89.672L202.282,89.672z"
	/>
<path fill="#FFFFFF" d="M256.179,78.372v-4.05c0-2.239-1.066-3.198-3.52-3.198c-2.345,0-3.518,1.013-3.518,3.198v4.05H256.179z
	 M263.374,84.662c-1.759,4.902-5.117,7.195-10.5,7.195c-7.462,0-12.151-4.317-12.151-10.768c0-6.343,5.01-11.246,12.046-11.246
	c6.395,0,10.34,3.784,10.34,9.86v0.267h-13.965v5.225c0,3.729,0.853,5.33,4.264,5.33c4.265,0,7.196-2.133,8.741-6.291
	L263.374,84.662z"/>
<path fill="#FFFFFF" d="M121.305,43.988h-3.389v-1.613h3.389v-1.13c0-7.959,4.947-13.552,11.186-13.552
	c3.872,0,6.292,1.936,6.292,4.625c0,2.205-1.237,3.442-3.389,3.442c-1.881,0-3.228-1.237-3.228-3.011
	c0-1.614,1.399-2.205,1.399-2.797c0-0.377-0.592-0.753-1.561-0.753c-2.15,0-3.441,1.721-3.441,5.055c0,2.42,0.162,4.464,0.162,6.077
	v2.091h4.624v1.735h-4.624v17.578h3.764v1.614h-14.305v-1.614h3.119L121.305,43.988L121.305,43.988z"/>
<path fill="#FFFFFF" d="M106.756,75.448c-0.171-0.021-0.343-0.04-0.514-0.062c0,0.426-0.132,0.909,0.025,1.266
	c0.442,1.013,1.777,1.648,2.957,1.459C108.374,77.193,107.565,76.32,106.756,75.448"/>
<path fill="#FFFFFF" d="M37.92,63.747c-0.281-0.024-0.479-0.065-0.675-0.053c-0.25,0.016-0.502,0.055-0.745,0.115
	c-8.625,2.146-15.751,6.732-21.438,13.493c-4.665,5.546-4.975,12.497-0.981,18.529c3.474,5.245,8.562,8.396,14.299,10.569
	c4.314,1.637,8.79,2.563,13.502,2.459c-0.419-1.978-0.785-3.844-1.234-5.691c-0.069-0.282-0.484-0.595-0.797-0.682
	c-0.677-0.184-1.393-0.221-2.088-0.334c-5.315-0.864-10.419-2.322-14.934-5.396c-6.364-4.33-7.839-10.822-3.837-17.419
	c3.403-5.608,8.401-9.33,14.688-10.979C36.305,67.668,37.562,66.415,37.92,63.747 M37.042,69.148
	c-0.286-0.049-1.366,0.017-1.494,0.053c-5.562,1.523-10.509,4.152-13.897,8.91c-3.308,4.644-3.526,10.951,1.499,15.177
	c2.605,2.192,5.709,3.444,8.965,4.254c2.466,0.614,4.103,0.937,6.682,1.429C37.29,94.543,34.658,80.005,37.042,69.148
	 M40.363,58.194c-0.482,0-0.829-0.037-1.166,0.007c-0.801,0.105-1.614,0.183-2.393,0.384C25.41,61.537,15.896,67.449,8.773,76.88
	c-4.229,5.601-6.2,11.933-4.503,18.966c2.026,8.395,7.237,14.141,15.098,17.613c5.446,2.409,11.179,3.706,17.026,4.538
	c2.79,0.397,5.622,0.503,8.618,0.756c-0.564-1.627-0.979-3.024-1.553-4.354c-0.178-0.412-0.764-0.871-1.201-0.912
	c-5.745-0.539-11.415-1.467-16.847-3.471c-5.058-1.867-9.669-4.5-12.949-8.916c-4.851-6.529-5.063-14.981-0.229-22.459
	c5.931-9.171,14.845-14.057,25.27-16.445c0.907-0.208,1.436-0.485,1.72-1.382C39.495,59.956,39.937,59.154,40.363,58.194
	 M64.028,133.623c-3.061,0.736-3.968,1.548-4.926,0.195c-0.395-0.479-0.979-1.483-0.979-1.483
	c-12.482-22.962-18.205-46.911-13.387-72.897c-0.182-0.026-0.364-0.053-0.546-0.079c-0.849,3.078-1.888,6.118-2.504,9.243
	c-1.116,5.656-1.229,11.403-0.648,17.133c1.027,10.132,3.492,19.935,7.143,29.432c1.406,3.659,3.019,7.238,4.643,11.105
	c-1.205,0-2.436,0.047-3.664-0.008c-7.688-0.344-15.324-1.109-22.799-3.055c-5.552-1.443-10.894-3.345-15.505-6.93
	c-5.991-4.656-9.95-10.58-10.701-18.188c-0.745-7.547,1.22-14.608,5.512-20.841C13.2,66.312,23.761,59.838,36.624,56.957
	c0.638-0.143,1.418-0.415,2.031-0.603c2.789-0.853,7.034-6.945,7.235-7.224c1.082-1.493,2.372-2.922,3.069-4.591
	c2.639-6.309,5.569-12.438,9.601-17.997c0.377-0.52,0.813-1.145,0.845-1.741c0.166-3.094,2.045-5.331,3.733-7.634
	c2.949-4.026,6.175-7.818,10.271-10.748c2.036-1.457,4.159-2.733,6.871-2.161c0.274,0.058,0.684-0.277,0.958-0.514
	C83.321,1.947,85.648,0.629,87.89,0c-1.643,1.296-3.6,2.771-5.457,4.361c-0.387,0.331-0.403,1.092-0.597,1.653
	c-0.471,1.366-0.644,2.958-1.472,4.054c-2.561,3.388-5.275,6.674-8.12,9.827c-1.797,1.992-3.902,3.714-5.934,5.482
	c-1.265,1.099-2.656,2.012-4.466,2.005c-0.375-0.001-0.866,0.268-1.11,0.569c-3.543,4.381-6.468,9.141-8.632,14.384
	c7.433-6.914,16.306-11.419,25.406-15.557c0.315-0.143,0.771-0.266,0.885-0.521c0.945-2.113,2.912-2.844,4.814-3.678
	c4.986-2.183,9.977-4.367,15.36-5.397c2.468-0.473,4.922-1.051,7.36,0.474c0.63,0.395,1.842-0.131,2.784-0.245
	c3.639-0.442,7.133,0.088,10.903,1.606c-2.469-0.313-4.52-0.609-6.58-0.818c-0.905-0.092-1.841-0.1-2.74,0.019
	c-1.649,0.217-3.143,0.549-4.016,2.384c-1.121,2.357-3.412,3.573-5.713,4.54c-5.355,2.248-10.856,4.068-16.63,4.881
	c-2.548,0.238-2.43-0.551-3.583-0.574c-1.218-0.024-2.403,0.141-3.514,0.506c-6.242,2.053-11.651,5.581-16.633,9.804
	c-4.089,3.467-7.575,7.486-10.876,11.697c-1.349,1.719-1.541,3.73-1.834,5.665c-0.521,3.445-0.847,6.939-0.972,10.423
	c-0.368,10.208,1.477,20.123,4.354,29.863c3.315,11.218,8.062,21.847,13.437,32.212C64.689,130.337,66.471,132.85,64.028,133.623"/>
<path fill="#FFFFFF" d="M57.201,63.049c1.5-1.335,2.816-2.606,4.236-3.749c4.066-3.276,8.703-5.178,13.96-5.03
	c3.887,0.109,7.521,1.365,10.91,3.303C92,60.831,96.521,65.376,100.441,70.55c0.776,1.025,1.639,0.961,2.492,0.568
	c1.153-0.533,0.546-1.435,0.172-2.2c-0.179-0.361-0.411-0.699-0.645-1.029c-3.077-4.396-6.647-8.332-10.971-11.531
	c-4.975-3.683-10.446-6.302-16.737-6.308C66.493,50.041,60.195,55.019,57.201,63.049 M55.126,70.357
	c0.646-0.48,1.161-0.889,1.699-1.263c3.567-2.479,7.286-4.521,11.822-4.504c3.523,0.014,6.717,1.17,9.471,3.169
	c6.389,4.641,12.627,9.486,18.911,14.27c1.475,1.121,2.376,0.951,3.025-0.768c0.263-0.695,0.436-1.464,0.462-2.205
	c0.11-3.158-3.117-7.695-6.361-8.969c-5.678-2.227-11.381-4.362-16.787-7.258c-2.117-1.135-4.613-1.861-7.007-2.119
	c-4.71-0.507-8.716,1.391-12.371,4.339C56.246,66.458,55.176,67.979,55.126,70.357 M101.012,85.475
	c4.747,4.469,10.124,7.361,16.077,9.801c4.483,1.838,9.169,2.893,13.993,2.972c3.601,0.058,5.602-0.272,8.359-1.522
	c-0.322,0.322-2.963,3.465-10.455,2.95c-7.02-0.685-13.9-2.116-20.256-5.223c-3.841-1.877-7.122-3.375-11.058-6.591
	c-0.343-0.279-1.676-1.293-3.071-2.715C88.44,79.509,82.768,73.902,76.64,68.848c-5.034-4.153-13.388-2.621-17.474,2.575
	c-2.713,3.451-4.024,7.421-4.423,11.729c0.678,21.906,12.918,40.604,10.293,41.781c-0.51,0.168-1.158-0.807-1.333-1.156
	c-6.049-12.057-11.033-23.971-13.592-37.319c-1.059-5.522-1.53-11.073-1.119-16.638c0.562-7.61,2.769-14.629,8.887-19.793
	c3.521-2.97,7.659-4.464,12.234-4.643c8.989-0.351,16.493,3.277,23.254,8.839c5.411,4.452,9.47,9.968,12.814,16.072
	c0.908,1.46-0.412,2.612-0.544,2.766c-1.521,1.737-2.624,3.481-2.068,6.07C104.097,81.584,102.531,83.557,101.012,85.475"/>
<path fill="#FFFFFF" d="M107.361,72.376c7.403,7.081,14.989,13.938,23.571,19.649c-0.03,0.091-0.504-0.131-0.729-0.248
	c-8.742-4.625-16.247-10.84-23.031-17.971c-0.256-0.269-0.438-0.717-0.302-1.172C107,72.365,107.133,72.326,107.361,72.376"/>
<path fill="#FFFFFF" d="M106.756,75.448c0.81,0.872,1.618,1.745,2.469,2.663c-1.18,0.189-2.515-0.446-2.957-1.459
	c-0.157-0.355-0.269-1-0.025-1.266C106.44,75.218,106.671,75.322,106.756,75.448"/>
<path fill="#FFFFFF" d="M242.055,37.282c0,1.021,0.975,1.439,1.67,1.439c-0.511-0.371-0.695-0.835-0.695-1.439
	c0-0.695,0.186-1.299,0.695-1.623C242.844,35.659,242.055,36.216,242.055,37.282 M244.838,41.458c0,0-2.134,1.624-3.432,2.458
	c-1.066,0.65-6.771,3.897-8.304,6.402c-0.603,0.928-0.974,2.273-0.974,3.897c0,0,0.789-1.717,1.81-3.108
	c1.345-1.995,8.068-6.124,9.044-7.051C243.911,43.174,244.838,41.458,244.838,41.458 M235.423,31.948
	c-1.577-1.624-3.107-2.459-4.917-2.459c-2.689,0-6.816,1.854-6.816,5.66c0,2.226,0.603,3.154,1.993,4.453
	c-0.881-1.252-1.021-2.412-1.021-3.85c0-3.433,3.665-5.196,5.611-5.196C231.944,30.556,233.707,30.881,235.423,31.948
	 M226.007,41.829c-4.267,0-7.977,3.943-7.977,9.509c0,6.68,5.89,10.902,10.48,11.18c-3.293-0.974-8.766-3.293-8.766-11.226
	c0-4.361,3.572-8.443,6.4-8.443c1.206,0,1.529-0.139,4.175,0.325C230.321,43.174,228.883,41.829,226.007,41.829 M236.582,33.525
	c-0.928,0.696-1.345-1.809-5.241-1.809c-2.968,0-5.563,2.134-5.563,5.057c0,1.577,0.646,2.969,1.438,3.943
	c1.066,0.324,1.901,0.51,3.061,1.159c1.254,0.65,3.017,2.552,2.552,3.108c-0.371,0.464-1.159-1.021-3.85-1.021
	c-5.103,0-7.051,4.732-7.051,8.397c0,5.938,4.128,9.881,9.556,9.881c5.333,0,9.926-3.386,9.926-8.489
	c0-2.227-1.021-3.989-2.319-5.382c-1.67,1.299-3.71,2.552-5.519,4.964c-2.088,2.738-0.743,4.268-1.624,4.268
	c-0.882,0-1.113-4.128-0.511-5.66c1.669-4.453,4.916-5.705,6.957-7.236c2.782-1.995,7.838-4.546,6.957-5.567
	c-0.231-0.186-0.324-0.186-0.604-0.092c-0.186,0.092-0.557,0.371-1.392,0.371c-1.299,0-2.181-1.067-2.181-2.227
	c0-1.392,0.929-2.273,2.366-2.273c2.317,0,2.829,2.18,2.829,4.082c0,3.479-2.134,5.196-4.731,7.469l-1.205,1.021
	c1.205,1.995,2.181,3.526,2.181,6.077c0,6.263-6.076,10.02-12.523,10.02c-7.235,0-13.312-5.102-13.312-12.571
	c0-5.288,3.804-10.021,8.951-10.392c-2.04-1.299-3.106-2.875-3.106-5.381c0-3.897,3.571-6.772,7.467-6.772
	C234.263,28.469,237.788,32.689,236.582,33.525"/>
<path fill="#FFFFFF" d="M242.055,37.282c0,1.021,0.975,1.439,1.67,1.439c-0.511-0.371-0.695-0.835-0.695-1.439
	c0-0.695,0.186-1.299,0.695-1.623C242.844,35.659,242.055,36.216,242.055,37.282z M244.838,41.458c0,0-2.134,1.624-3.432,2.458
	c-1.066,0.65-6.771,3.897-8.304,6.402c-0.603,0.928-0.974,2.273-0.974,3.897c0,0,0.789-1.717,1.81-3.108
	c1.345-1.995,8.068-6.124,9.044-7.051C243.911,43.174,244.838,41.458,244.838,41.458z M235.423,31.948
	c-1.577-1.624-3.107-2.459-4.917-2.459c-2.689,0-6.816,1.854-6.816,5.66c0,2.226,0.603,3.154,1.993,4.453
	c-0.881-1.252-1.021-2.412-1.021-3.85c0-3.433,3.665-5.196,5.611-5.196C231.944,30.556,233.707,30.881,235.423,31.948z
	 M226.007,41.829c-4.267,0-7.977,3.943-7.977,9.509c0,6.68,5.89,10.902,10.48,11.18c-3.293-0.974-8.766-3.293-8.766-11.226
	c0-4.361,3.572-8.443,6.4-8.443c1.206,0,1.529-0.139,4.175,0.325C230.321,43.174,228.883,41.829,226.007,41.829z M236.582,33.525
	c-0.928,0.696-1.345-1.809-5.241-1.809c-2.968,0-5.563,2.134-5.563,5.057c0,1.577,0.646,2.969,1.438,3.943
	c1.066,0.324,1.901,0.51,3.061,1.159c1.254,0.65,3.017,2.552,2.552,3.108c-0.371,0.464-1.159-1.021-3.85-1.021
	c-5.103,0-7.051,4.732-7.051,8.397c0,5.938,4.128,9.881,9.556,9.881c5.333,0,9.926-3.386,9.926-8.489
	c0-2.227-1.021-3.989-2.319-5.382c-1.67,1.299-3.71,2.552-5.519,4.964c-2.088,2.738-0.743,4.268-1.624,4.268
	c-0.882,0-1.113-4.128-0.511-5.66c1.669-4.453,4.916-5.705,6.957-7.236c2.782-1.995,7.838-4.546,6.957-5.567
	c-0.231-0.186-0.324-0.186-0.604-0.092c-0.186,0.092-0.557,0.371-1.392,0.371c-1.299,0-2.181-1.067-2.181-2.227
	c0-1.392,0.929-2.273,2.366-2.273c2.317,0,2.829,2.18,2.829,4.082c0,3.479-2.134,5.196-4.731,7.469l-1.205,1.021
	c1.205,1.995,2.181,3.526,2.181,6.077c0,6.263-6.076,10.02-12.523,10.02c-7.235,0-13.312-5.102-13.312-12.571
	c0-5.288,3.804-10.021,8.951-10.392c-2.04-1.299-3.106-2.875-3.106-5.381c0-3.897,3.571-6.772,7.467-6.772
	C234.263,28.469,237.788,32.689,236.582,33.525z"/>
<path fill="#FFFFFF" d="M180.403,102.854l-1.207,3.33h2.414L180.403,102.854z M182.538,108.947l-0.475-1.312h-3.319l-0.487,1.312
	h-1.88l2.993-7.74h2.066l2.981,7.74H182.538z"/>
<path fill="#FFFFFF" d="M184.757,105.859v-4.652h1.672v4.595c0,1.079,0.627,1.822,1.821,1.822c1.195,0,1.812-0.743,1.812-1.822
	v-4.595h1.683v4.643c0,1.926-1.137,3.236-3.493,3.236C185.895,109.086,184.757,107.764,184.757,105.859"/>
<path fill="#FFFFFF" d="M192.742,107.855l0.896-1.254c0.545,0.568,1.392,1.045,2.46,1.045c0.904,0,1.346-0.418,1.346-0.858
	c0-1.369-4.456-0.429-4.456-3.343c0-1.287,1.114-2.355,2.937-2.355c1.229,0,2.251,0.372,3.018,1.08l-0.917,1.207
	c-0.627-0.581-1.462-0.848-2.251-0.848c-0.708,0-1.104,0.312-1.104,0.777c0,1.229,4.444,0.405,4.444,3.295
	c0,1.416-1.009,2.483-3.098,2.483C194.529,109.086,193.463,108.587,192.742,107.855"/>
<polygon fill="#FFFFFF" points="201.866,108.947 201.866,102.657 199.603,102.657 199.603,101.207 205.776,101.207 205.776,102.657 
	203.524,102.657 203.524,108.947 "/>
<path fill="#FFFFFF" d="M211.371,103.702c0-0.65-0.499-1.045-1.16-1.045h-1.729v2.089h1.729
	C210.872,104.746,211.371,104.352,211.371,103.702 M211.209,108.947l-1.521-2.75h-1.207v2.75h-1.647v-7.74h3.62
	c1.613,0,2.601,1.057,2.601,2.495c0,1.368-0.858,2.1-1.694,2.297l1.741,2.948H211.209z"/>
<path fill="#FFFFFF" d="M217.5,102.854l-1.207,3.33h2.414L217.5,102.854z M219.635,108.947l-0.476-1.312h-3.318l-0.487,1.312h-1.88
	l2.993-7.74h2.065l2.982,7.74H219.635z"/>
<polygon fill="#FFFFFF" points="222.236,108.947 222.236,101.207 223.885,101.207 223.885,107.497 227.156,107.497 227.156,108.947 
	"/>
<rect x="228.308" y="101.207" fill="#FFFFFF" width="1.647" height="7.74"/>
<path fill="#FFFFFF" d="M234.69,102.854l-1.207,3.33h2.414L234.69,102.854z M236.825,108.947l-0.475-1.312h-3.319l-0.487,1.312
	h-1.881l2.994-7.74h2.066l2.98,7.74H236.825z"/>
<rect x="242.399" y="101.207" fill="#FFFFFF" width="1.646" height="7.74"/>
<polygon fill="#FFFFFF" points="250.916,108.947 247.227,103.898 247.227,108.947 245.578,108.947 245.578,101.207 247.273,101.207 
	250.858,106.068 250.858,101.207 252.507,101.207 252.507,108.947 "/>
<path fill="#FFFFFF" d="M253.669,105.082c0-2.379,1.799-4.003,4.12-4.003c1.706,0,2.691,0.929,3.236,1.892l-1.415,0.695
	c-0.324-0.626-1.021-1.125-1.821-1.125c-1.405,0-2.427,1.079-2.427,2.541c0,1.463,1.021,2.541,2.427,2.541
	c0.8,0,1.497-0.486,1.821-1.125l1.415,0.686c-0.558,0.963-1.53,1.902-3.236,1.902C255.468,109.086,253.669,107.462,253.669,105.082"
	/>
<path fill="#FFFFFF" d="M261.794,108.135c0-0.511,0.43-0.939,0.939-0.939s0.939,0.43,0.939,0.939s-0.43,0.939-0.939,0.939
	S261.794,108.645,261.794,108.135"/>
<path fill="#FFFFFF" d="M271.496,74.122v-3.077l-1.268,3.077h-0.137l-1.268-3.077v3.077h-0.474v-3.72h0.727l1.082,2.705l1.082-2.705
	h0.728v3.72H271.496z M266.694,70.842v3.28h-0.474v-3.28h-1.05v-0.439h2.571v0.439H266.694z"/>
</svg>
