<?xml version="1.0" encoding="utf-8"?>
<!-- Generator: Adobe Illustrator 17.0.0, SVG Export Plug-In . SVG Version: 6.00 Build 0)  -->
<!DOCTYPE svg PUBLIC "-//W3C//DTD SVG 1.1//EN" "http://www.w3.org/Graphics/SVG/1.1/DTD/svg11.dtd">
<svg version="1.1" xmlns="http://www.w3.org/2000/svg" xmlns:xlink="http://www.w3.org/1999/xlink" x="0px" y="0px" width="20px"
	 height="20px" viewBox="0 0 20 20" enable-background="new 0 0 20 20" xml:space="preserve">
<g id="Layer_1" display="none">
	<text transform="matrix(1 0 0 1 5.4287 16.6222)" display="inline" fill="#C0BEBE" font-family="'FontAwesome'" font-size="16"></text>
</g>
<g id="Layer_2" display="none">
	<g display="inline">
		<path fill="#BFBEBE" d="M17.36,5.912c-0.398,0.583-0.881,1.08-1.446,1.491c0.006,0.083,0.009,0.208,0.009,0.375
			c0,0.774-0.112,1.546-0.339,2.317c-0.227,0.771-0.57,1.511-1.031,2.219s-1.011,1.335-1.647,1.88
			c-0.637,0.544-1.405,0.979-2.303,1.303c-0.899,0.325-1.86,0.487-2.884,0.487c-1.613,0-3.089-0.432-4.428-1.295
			c0.208,0.023,0.44,0.036,0.696,0.036c1.339,0,2.533-0.411,3.58-1.232c-0.625-0.012-1.185-0.204-1.678-0.576
			c-0.494-0.372-0.833-0.847-1.018-1.424c0.196,0.029,0.378,0.045,0.545,0.045c0.256,0,0.509-0.033,0.759-0.099
			c-0.667-0.137-1.219-0.469-1.656-0.996S3.861,9.304,3.861,8.608V8.572C4.266,8.798,4.7,8.92,5.165,8.938
			C4.771,8.676,4.459,8.334,4.227,7.912C3.995,7.489,3.878,7.031,3.878,6.537c0-0.524,0.131-1.009,0.393-1.456
			c0.72,0.887,1.597,1.597,2.629,2.129S9.04,8.04,10.218,8.099c-0.047-0.226-0.071-0.447-0.071-0.661
			c0-0.798,0.281-1.478,0.844-2.041s1.242-0.844,2.04-0.844c0.833,0,1.536,0.304,2.107,0.911c0.648-0.125,1.259-0.357,1.83-0.696
			c-0.22,0.685-0.643,1.214-1.268,1.589C16.254,6.298,16.808,6.149,17.36,5.912z"/>
	</g>
</g>
<g id="Layer_3">
	<g>
		<path fill="#BFBEBE" d="M9.671,10.185c0,0.214,0.096,0.424,0.287,0.629c0.189,0.205,0.42,0.407,0.691,0.606
			c0.27,0.2,0.539,0.419,0.809,0.656c0.268,0.238,0.496,0.548,0.688,0.929c0.189,0.381,0.285,0.804,0.285,1.268
			c0,0.536-0.143,1.051-0.43,1.545c-0.428,0.727-1.057,1.261-1.883,1.603c-0.828,0.343-1.715,0.513-2.66,0.513
			c-0.787,0-1.521-0.123-2.202-0.369c-0.682-0.247-1.192-0.656-1.531-1.229c-0.22-0.356-0.331-0.746-0.331-1.169
			c0-0.482,0.132-0.929,0.397-1.34c0.265-0.41,0.617-0.753,1.058-1.026c0.78-0.488,1.983-0.786,3.608-0.893
			c-0.191-0.25-0.332-0.471-0.426-0.661c-0.092-0.19-0.137-0.407-0.137-0.651c0-0.214,0.062-0.467,0.188-0.759
			C7.808,9.86,7.606,9.873,7.476,9.873c-0.881,0-1.624-0.287-2.229-0.862C4.643,8.437,4.341,7.708,4.341,6.828
			c0-0.488,0.107-0.961,0.322-1.419s0.509-0.848,0.884-1.17c0.458-0.393,1.001-0.684,1.63-0.875c0.627-0.19,1.273-0.286,1.941-0.286
			h3.732l-1.232,0.786h-1.17c0.439,0.375,0.773,0.771,1,1.188c0.227,0.417,0.34,0.893,0.34,1.429c0,0.429-0.074,0.814-0.219,1.156
			c-0.146,0.342-0.322,0.619-0.527,0.831c-0.205,0.211-0.412,0.405-0.621,0.58c-0.207,0.176-0.385,0.359-0.531,0.549
			C9.745,9.786,9.671,9.982,9.671,10.185z M8.386,17.122c0.346,0,0.678-0.039,0.996-0.116s0.613-0.193,0.883-0.348
			c0.271-0.155,0.488-0.372,0.652-0.652c0.164-0.279,0.246-0.604,0.246-0.973c0-0.149-0.021-0.295-0.062-0.438
			c-0.043-0.144-0.086-0.269-0.131-0.375c-0.043-0.107-0.125-0.231-0.24-0.371s-0.203-0.244-0.264-0.312
			c-0.059-0.068-0.174-0.171-0.344-0.308s-0.277-0.224-0.326-0.259c-0.047-0.036-0.17-0.125-0.369-0.269
			c-0.201-0.143-0.309-0.22-0.326-0.231c-0.096-0.013-0.238-0.019-0.43-0.019c-0.314,0-0.627,0.021-0.938,0.062
			c-0.309,0.042-0.629,0.116-0.959,0.224s-0.619,0.244-0.866,0.41c-0.247,0.167-0.451,0.389-0.612,0.666
			c-0.161,0.276-0.241,0.591-0.241,0.941c0,0.417,0.104,0.784,0.312,1.103s0.481,0.565,0.817,0.741s0.691,0.307,1.062,0.393
			C7.62,17.079,7.999,17.122,8.386,17.122z M8.368,9.328c0.227,0,0.457-0.049,0.695-0.147c0.238-0.098,0.436-0.228,0.59-0.388
			c0.316-0.339,0.473-0.812,0.473-1.419c0-0.345-0.051-0.717-0.15-1.116C9.874,5.857,9.729,5.472,9.542,5.1S9.103,4.42,8.788,4.176
			C8.472,3.932,8.124,3.81,7.743,3.81c-0.25,0-0.496,0.058-0.736,0.174C6.765,4.1,6.569,4.256,6.421,4.453
			C6.142,4.804,6.002,5.28,6.002,5.881c0,0.274,0.029,0.564,0.089,0.871c0.061,0.307,0.154,0.613,0.281,0.919
			c0.129,0.307,0.283,0.582,0.465,0.826s0.404,0.443,0.67,0.598C7.771,9.25,8.058,9.328,8.368,9.328z M15.618,9.301h1.902v0.964
			h-1.902v1.956h-0.938v-1.956h-1.893V9.301h1.893V7.363h0.938V9.301z"/>
	</g>
</g>
</svg>
