<?xml version="1.0" encoding="utf-8"?>
<!-- Generator: Adobe Illustrator 17.0.0, SVG Export Plug-In . SVG Version: 6.00 Build 0)  -->
<!DOCTYPE svg PUBLIC "-//W3C//DTD SVG 1.1//EN" "http://www.w3.org/Graphics/SVG/1.1/DTD/svg11.dtd">
<svg version="1.1" id="Layer_1" xmlns="http://www.w3.org/2000/svg" xmlns:xlink="http://www.w3.org/1999/xlink" x="0px" y="0px"
	 width="160px" height="20px" viewBox="0 0 160 20" enable-background="new 0 0 160 20" xml:space="preserve">
<g>
	<path fill="#FFFFFF" d="M2.504,16.061V4.055h7.866v1.336H3.998V9.25h6.24v1.336h-6.24v5.475H2.504z"/>
	<path fill="#FFFFFF" d="M17.866,16.061l4.843-12.005h1.854l4.825,12.005h-1.705l-1.063-2.663h-5.977l-1.063,2.663H17.866z
		 M21.091,12.062h5.098l-2.558-6.477L21.091,12.062z"/>
	<path fill="#FFFFFF" d="M38.513,16.061V4.055h1.529l6.908,9.377V4.055h1.494V16.06h-1.441l-6.996-9.58v9.58h-1.494V16.061z"/>
	<path fill="#FFFFFF" d="M58.448,14.363l0.896-1.153c0.996,1.156,2.25,1.734,3.762,1.734c0.973,0,1.688-0.209,2.145-0.627
		c0.457-0.419,0.686-0.905,0.686-1.462c0-0.562-0.243-1.009-0.73-1.342c-0.487-0.334-1.079-0.597-1.776-0.792
		c-0.696-0.194-1.395-0.388-2.095-0.583s-1.293-0.535-1.779-1.021s-0.729-1.129-0.729-1.931c0-0.98,0.39-1.781,1.169-2.402
		s1.77-0.932,2.971-0.932c1.764,0,3.179,0.56,4.245,1.679l-0.896,1.101c-0.85-0.962-2.007-1.444-3.472-1.444
		c-0.721,0-1.312,0.179-1.775,0.537c-0.463,0.358-0.694,0.821-0.694,1.39c0,0.426,0.177,0.778,0.529,1.057s0.787,0.492,1.304,0.643
		c0.517,0.15,1.086,0.315,1.709,0.496c0.623,0.181,1.196,0.381,1.719,0.599s0.962,0.572,1.316,1.061
		c0.355,0.489,0.533,1.08,0.533,1.772c0,0.974-0.363,1.807-1.09,2.499s-1.84,1.038-3.34,1.038
		C61.108,16.28,59.573,15.642,58.448,14.363z"/>
	<path fill="#FFFFFF" d="M76.59,11.2V4.055h3.094v7.073c0,0.735,0.22,1.329,0.66,1.779s1.069,0.675,1.884,0.675
		c0.805,0,1.427-0.225,1.867-0.675s0.66-1.044,0.66-1.779V4.055h3.094v7.127c0,1.559-0.473,2.798-1.417,3.718
		s-2.345,1.38-4.203,1.38c-1.859,0-3.262-0.463-4.213-1.389C77.066,13.966,76.59,12.735,76.59,11.2z"/>
	<path fill="#FFFFFF" d="M97.29,16.061V4.055h3.182l4.86,6.609V4.055h3.094V16.06h-2.963l-5.079-6.952v6.952H97.29V16.061z"/>
	<path fill="#FFFFFF" d="M117.806,16.061V4.055h3.094V16.06h-3.094V16.061z"/>
	<path fill="#FFFFFF" d="M129.576,6.753V4.055h9.809v2.698h-3.349v9.307h-3.094V6.753H129.576z"/>
	<path fill="#FFFFFF" d="M148.062,16.061V4.055h8.798v2.698h-5.704v1.872h5.581v2.698h-5.581v2.039h5.704v2.698h-8.798V16.061z"/>
</g>
</svg>
