<?xml version="1.0" encoding="utf-8"?>
<!-- Generator: Adobe Illustrator 17.0.0, SVG Export Plug-In . SVG Version: 6.00 Build 0)  -->
<!DOCTYPE svg PUBLIC "-//W3C//DTD SVG 1.1//EN" "http://www.w3.org/Graphics/SVG/1.1/DTD/svg11.dtd">
<svg version="1.1" xmlns="http://www.w3.org/2000/svg" xmlns:xlink="http://www.w3.org/1999/xlink" x="0px" y="0px" width="20px"
	 height="20px" viewBox="0 0 20 20" enable-background="new 0 0 20 20" xml:space="preserve">
<g id="Layer_1" display="none">
	<text transform="matrix(1 0 0 1 5.4287 16.6222)" display="inline" fill="#C0BEBE" font-family="'FontAwesome'" font-size="16"></text>
</g>
<g id="Layer_2">
	<g>
		<path fill="#BFBEBE" d="M17.36,5.912c-0.398,0.583-0.881,1.08-1.446,1.491c0.006,0.083,0.009,0.208,0.009,0.375
			c0,0.774-0.112,1.546-0.339,2.317c-0.227,0.771-0.57,1.511-1.031,2.219s-1.011,1.335-1.647,1.88
			c-0.637,0.544-1.405,0.979-2.303,1.303c-0.899,0.325-1.86,0.487-2.884,0.487c-1.613,0-3.089-0.432-4.428-1.295
			c0.208,0.023,0.44,0.036,0.696,0.036c1.339,0,2.533-0.411,3.58-1.232c-0.625-0.012-1.185-0.204-1.678-0.576
			c-0.494-0.372-0.833-0.847-1.018-1.424c0.196,0.029,0.378,0.045,0.545,0.045c0.256,0,0.509-0.033,0.759-0.099
			c-0.667-0.137-1.219-0.469-1.656-0.996S3.861,9.304,3.861,8.608V8.572C4.266,8.798,4.7,8.92,5.165,8.938
			C4.771,8.676,4.459,8.334,4.227,7.912C3.995,7.489,3.878,7.031,3.878,6.537c0-0.524,0.131-1.009,0.393-1.456
			c0.72,0.887,1.597,1.597,2.629,2.129S9.04,8.04,10.218,8.099c-0.047-0.226-0.071-0.447-0.071-0.661
			c0-0.798,0.281-1.478,0.844-2.041s1.242-0.844,2.04-0.844c0.833,0,1.536,0.304,2.107,0.911c0.648-0.125,1.259-0.357,1.83-0.696
			c-0.22,0.685-0.643,1.214-1.268,1.589C16.254,6.298,16.808,6.149,17.36,5.912z"/>
	</g>
</g>
</svg>
