<?xml version="1.0" encoding="utf-8"?>
<!-- Generator: Adobe Illustrator 17.0.0, SVG Export Plug-In . SVG Version: 6.00 Build 0)  -->
<!DOCTYPE svg PUBLIC "-//W3C//DTD SVG 1.1//EN" "http://www.w3.org/Graphics/SVG/1.1/DTD/svg11.dtd">
<svg version="1.1" id="Layer_2" xmlns="http://www.w3.org/2000/svg" xmlns:xlink="http://www.w3.org/1999/xlink" x="0px" y="0px"
	 width="85px" height="170px" viewBox="0 0 85 170" enable-background="new 0 0 85 170" xml:space="preserve">
<g opacity="0.3">
	<path fill="#0C0C0C" d="M-0.008,170.111c0-12.601,5.705-24.753,15.383-32.797c9.418-7.827,19.739-7.887,31.061-10.681
		c21.344-5.267,38.565-17.8,38.564-41.633c0.001-23.834-17.22-36.367-38.564-41.634c-11.322-2.794-21.643-2.853-31.061-10.681
		C5.697,24.642-0.008,12.49-0.008-0.111"/>
</g>
<g>
	<path fill="#FFFFFF" d="M-0.008,169.268c0-12.476,5.66-24.508,15.262-32.472c9.344-7.75,19.584-7.809,30.817-10.575
		C67.248,121.007,84.334,108.598,84.333,85c0.001-23.598-17.085-36.007-38.262-41.222c-11.233-2.766-21.473-2.825-30.817-10.575
		C5.652,25.239-0.008,13.207-0.008,0.731"/>
</g>
</svg>
