<?xml version="1.0" encoding="utf-8"?>
<!-- Generator: Adobe Illustrator 17.0.0, SVG Export Plug-In . SVG Version: 6.00 Build 0)  -->
<!DOCTYPE svg PUBLIC "-//W3C//DTD SVG 1.1//EN" "http://www.w3.org/Graphics/SVG/1.1/DTD/svg11.dtd">
<svg version="1.1" id="Layer_1" xmlns="http://www.w3.org/2000/svg" xmlns:xlink="http://www.w3.org/1999/xlink" x="0px" y="0px"
	 width="300px" height="400px" viewBox="0 0 300 400" enable-background="new 0 0 300 400" xml:space="preserve">
<g>
	<path fill="#898989" d="M13.318,2.967c0,0.101-0.039,0.191-0.117,0.268L7.769,8.669C7.691,8.747,7.602,8.786,7.501,8.786
		c-0.101,0-0.191-0.039-0.268-0.117L1.799,3.236C1.722,3.158,1.683,3.069,1.683,2.967c0-0.101,0.039-0.19,0.117-0.268l0.583-0.583
		C2.46,2.039,2.549,2,2.651,2c0.101,0,0.19,0.039,0.268,0.117l4.583,4.582l4.582-4.582C12.161,2.039,12.25,2,12.351,2
		c0.101,0,0.191,0.039,0.268,0.117l0.583,0.583C13.28,2.777,13.318,2.867,13.318,2.967z"/>
</g>
</svg>
