<?xml version="1.0" encoding="utf-8"?>
<!-- Generator: Adobe Illustrator 17.0.0, SVG Export Plug-In . SVG Version: 6.00 Build 0)  -->
<!DOCTYPE svg PUBLIC "-//W3C//DTD SVG 1.1//EN" "http://www.w3.org/Graphics/SVG/1.1/DTD/svg11.dtd">
<svg version="1.1" xmlns="http://www.w3.org/2000/svg" xmlns:xlink="http://www.w3.org/1999/xlink" x="0px" y="0px" width="430px"
	 height="230px" viewBox="0 0 430 230" enable-background="new 0 0 430 230" xml:space="preserve">
<g id="Layer_2">
	<g>
		<path fill="#ed3a4b" d="M253.667,70.083c0,3.438-2.812,6.25-6.25,6.25h-62.5c-3.438,0-6.25-2.812-6.25-6.25v-47.5
			c0-3.438,2.812-6.25,6.25-6.25h62.5c3.438,0,6.25,2.812,6.25,6.25V70.083z M184.917,21.333c-0.664,0-1.25,0.586-1.25,1.25v47.5
			c0,0.664,0.586,1.25,1.25,1.25h62.5c0.664,0,1.25-0.586,1.25-1.25v-47.5c0-0.664-0.586-1.25-1.25-1.25H184.917z M196.167,41.333
			c-4.141,0-7.5-3.359-7.5-7.5s3.359-7.5,7.5-7.5s7.5,3.359,7.5,7.5S200.308,41.333,196.167,41.333z M243.667,66.333h-55v-7.5
			l12.5-12.5l6.25,6.25l20-20l16.25,16.25V66.333z"/>
	</g>
	<g>
		<path fill="#ed3a4b" d="M129.702,117.412h-0.14c-1.053,2.356-2.424,3.534-4.114,3.534c-0.896,0-1.592-0.353-2.089-1.059
			c-0.498-0.705-0.747-1.691-0.747-2.959c0-2.02,0.628-3.892,1.885-5.618c1.257-1.726,2.812-2.589,4.667-2.589
			c0.823,0,1.543,0.176,2.159,0.526c0.114-0.673,0.197-1.085,0.247-1.235l0.215-1.053c0.1-0.494,0.15-0.823,0.15-0.988
			c0-0.688-0.512-1.031-1.536-1.031h-0.172l0.193-0.924h4.05l-2.557,11.988c-0.215,1.01-0.322,1.822-0.322,2.438
			c0,0.745,0.24,1.117,0.72,1.117c0.415,0,0.945-0.189,1.59-0.569l0.397,0.645c-1.053,0.874-2.088,1.311-3.104,1.311
			c-1.146,0-1.719-0.608-1.719-1.826C129.476,118.655,129.551,118.084,129.702,117.412z M130.948,110.504
			c-0.337-0.53-0.892-0.795-1.665-0.795c-1.253,0-2.304,0.797-3.153,2.39c-0.849,1.594-1.273,3.232-1.273,4.915
			c0,1.697,0.462,2.546,1.386,2.546c0.73,0,1.497-0.54,2.299-1.622c0.802-1.081,1.332-2.263,1.59-3.545L130.948,110.504z"/>
		<path fill="#ed3a4b" d="M142.99,111.912c0-1.16-0.294-1.74-0.881-1.74c-0.681,0-1.402,0.67-2.165,2.009
			c-0.763,1.339-1.327,2.854-1.692,4.544l-0.827,4.007h-2.052l1.848-8.841c0.086-0.408,0.129-0.737,0.129-0.988
			c0-0.694-0.584-1.042-1.751-1.042h-0.183l0.204-0.924h3.889l-0.462,3.169h0.226c0.587-1.311,1.167-2.202,1.74-2.675
			c0.573-0.473,1.239-0.709,1.998-0.709c1.203,0,1.805,0.505,1.805,1.515C144.816,111.353,144.207,111.912,142.99,111.912z"/>
		<path fill="#ed3a4b" d="M152.196,108.721c1.296,0,2.316,0.391,3.062,1.171c0.745,0.781,1.117,1.909,1.117,3.384
			c0,1.955-0.598,3.723-1.794,5.301c-1.196,1.58-2.768,2.369-4.716,2.369c-1.325,0-2.36-0.4-3.104-1.203
			c-0.745-0.802-1.117-1.916-1.117-3.341c0-1.977,0.603-3.75,1.81-5.323C148.66,109.507,150.241,108.721,152.196,108.721z
			 M150.112,119.872c1.21,0,2.175-0.718,2.895-2.154c0.72-1.436,1.08-3.027,1.08-4.774c0-2.041-0.716-3.062-2.148-3.062
			c-1.196,0-2.163,0.72-2.9,2.159c-0.738,1.439-1.106,3.04-1.106,4.802C147.931,118.862,148.658,119.872,150.112,119.872z"/>
		<path fill="#ed3a4b" d="M161.509,125.092l-0.193,0.924h-4.136l2.922-13.954c0.129-0.616,0.193-1.002,0.193-1.16
			c0-0.694-0.512-1.042-1.536-1.042h-0.172l0.193-0.924h3.899l-0.526,2.933h0.107c1.06-2.098,2.402-3.147,4.028-3.147
			c0.895,0,1.584,0.34,2.068,1.021c0.483,0.681,0.725,1.665,0.725,2.954c0,1.97-0.614,3.837-1.842,5.602
			c-1.229,1.766-2.802,2.648-4.721,2.648c-0.838,0-1.554-0.168-2.148-0.505c-0.064,0.473-0.125,0.827-0.183,1.063l-0.301,1.343
			c-0.136,0.608-0.204,1.017-0.204,1.225c0,0.681,0.512,1.021,1.536,1.021H161.509z M160.714,119.173
			c0.473,0.522,1.053,0.784,1.74,0.784c1.225,0,2.261-0.801,3.11-2.4c0.849-1.602,1.273-3.229,1.273-4.883
			c0-1.711-0.462-2.567-1.386-2.567c-0.759,0-1.525,0.528-2.299,1.584c-0.773,1.057-1.286,2.154-1.536,3.292L160.714,119.173z"/>
		<path fill="#ed3a4b" d="M177.107,109.86l0.193-0.924h3.942l-1.493,7.068c-0.222,1.053-0.333,1.865-0.333,2.438
			c0,0.745,0.243,1.117,0.73,1.117c0.422,0,0.949-0.189,1.579-0.569l0.397,0.645c-1.017,0.874-2.009,1.311-2.976,1.311
			c-0.544,0-0.985-0.197-1.321-0.591c-0.337-0.394-0.505-0.892-0.505-1.493c0-0.658,0.165-1.812,0.494-3.459l0.849-4.039
			c0.05-0.236,0.075-0.43,0.075-0.58c0-0.616-0.448-0.924-1.343-0.924H177.107z M180.673,106.734c-0.824,0-1.235-0.401-1.235-1.203
			c0-0.465,0.12-0.839,0.36-1.123c0.24-0.283,0.56-0.424,0.961-0.424c0.823,0,1.235,0.405,1.235,1.214
			c0,0.501-0.124,0.883-0.371,1.144C181.377,106.604,181.06,106.734,180.673,106.734z"/>
		<path fill="#ed3a4b" d="M189.052,119.077l0.376,0.816c-0.988,0.702-1.977,1.053-2.965,1.053c-1.597,0-2.396-0.855-2.396-2.567
			c0-0.552,0.071-1.167,0.215-1.848l1.343-6.338h-1.676l0.204-0.881c1.432,0,2.553-1.027,3.362-3.083h1.01l-0.569,2.707h2.664
			l-0.269,1.257h-2.664l-1.332,6.273c-0.179,0.845-0.269,1.476-0.269,1.891c0,0.802,0.39,1.203,1.171,1.203
			C187.853,119.56,188.451,119.399,189.052,119.077z"/>
		<path fill="#ed3a4b" d="M198.473,104.94l0.193-0.924h4.157l-2.546,11.988c-0.222,1.046-0.333,1.858-0.333,2.438
			c0,0.745,0.243,1.117,0.73,1.117c0.422,0,0.949-0.189,1.579-0.569l0.397,0.645c-1.017,0.874-2.009,1.311-2.976,1.311
			c-0.53,0-0.965-0.193-1.305-0.58c-0.34-0.387-0.51-0.888-0.51-1.504c0-0.694,0.161-1.848,0.483-3.459l1.794-8.443
			c0.093-0.437,0.14-0.766,0.14-0.988c0-0.688-0.516-1.031-1.547-1.031H198.473z"/>
		<path fill="#ed3a4b" d="M204.306,109.86l0.193-0.924h3.942l-1.493,7.068c-0.222,1.053-0.333,1.865-0.333,2.438
			c0,0.745,0.243,1.117,0.73,1.117c0.422,0,0.949-0.189,1.579-0.569l0.397,0.645c-1.017,0.874-2.009,1.311-2.976,1.311
			c-0.544,0-0.985-0.197-1.321-0.591c-0.337-0.394-0.505-0.892-0.505-1.493c0-0.658,0.165-1.812,0.494-3.459l0.849-4.039
			c0.05-0.236,0.075-0.43,0.075-0.58c0-0.616-0.448-0.924-1.343-0.924H204.306z M207.873,106.734c-0.824,0-1.235-0.401-1.235-1.203
			c0-0.465,0.12-0.839,0.36-1.123c0.24-0.283,0.56-0.424,0.961-0.424c0.823,0,1.235,0.405,1.235,1.214
			c0,0.501-0.124,0.883-0.371,1.144C208.576,106.604,208.259,106.734,207.873,106.734z"/>
		<path fill="#ed3a4b" d="M217.089,112.288c1.081-0.938,1.622-1.629,1.622-2.073c0-0.222-0.326-0.333-0.978-0.333l0.193-0.924h4.866
			l-0.204,0.924c-0.853,0-2.03,0.684-3.534,2.052l-1.987,1.826l2.009,4.351c0.565,1.232,1.311,1.848,2.234,1.848l-0.193,0.924
			c-1.218,0-2.112-0.142-2.686-0.424c-0.573-0.283-1.057-0.897-1.45-1.843l-1.429-3.513l-1.998,1.268l-0.902,4.361h-2.052
			l2.857-13.6c0.136-0.645,0.204-1.031,0.204-1.16c0-0.688-0.516-1.031-1.547-1.031h-0.172l0.193-0.924h4.05l-0.859,4.039
			c-0.788,3.703-1.357,6.116-1.708,7.24L217.089,112.288z"/>
		<path fill="#ed3a4b" d="M230.528,117.981c0.15,0.094,0.226,0.275,0.226,0.548c0,0.587-0.346,1.138-1.036,1.649
			c-0.691,0.512-1.617,0.768-2.777,0.768c-1.282,0-2.316-0.404-3.104-1.214s-1.182-1.919-1.182-3.33c0-1.919,0.619-3.679,1.858-5.28
			s2.804-2.401,4.694-2.401c0.931,0,1.652,0.222,2.165,0.666c0.512,0.444,0.768,1.063,0.768,1.858c0,1.189-0.617,2.224-1.853,3.104
			s-2.745,1.321-4.528,1.321h-0.376c-0.129,0-0.262-0.007-0.397-0.021c-0.028,0.2-0.043,0.509-0.043,0.924
			c0,1.991,0.806,2.986,2.417,2.986C228.612,119.56,229.668,119.034,230.528,117.981z M225.189,114.64h0.215
			c1.296,0,2.365-0.315,3.207-0.945c0.841-0.63,1.262-1.446,1.262-2.449c0-0.981-0.426-1.472-1.278-1.472
			c-0.709,0-1.371,0.446-1.987,1.337S225.518,113.179,225.189,114.64z"/>
		<path fill="#ed3a4b" d="M239.637,109.86l0.193-0.924h3.942l-1.493,7.068c-0.222,1.053-0.333,1.865-0.333,2.438
			c0,0.745,0.243,1.117,0.73,1.117c0.423,0,0.949-0.189,1.579-0.569l0.397,0.645c-1.017,0.874-2.009,1.311-2.976,1.311
			c-0.544,0-0.984-0.197-1.321-0.591s-0.505-0.892-0.505-1.493c0-0.658,0.165-1.812,0.494-3.459l0.849-4.039
			c0.05-0.236,0.075-0.43,0.075-0.58c0-0.616-0.447-0.924-1.343-0.924H239.637z M243.204,106.734c-0.823,0-1.235-0.401-1.235-1.203
			c0-0.465,0.12-0.839,0.36-1.123c0.239-0.283,0.56-0.424,0.961-0.424c0.823,0,1.235,0.405,1.235,1.214
			c0,0.501-0.123,0.883-0.37,1.144C243.908,106.604,243.59,106.734,243.204,106.734z"/>
		<path fill="#ed3a4b" d="M251.583,119.077l0.376,0.816c-0.988,0.702-1.977,1.053-2.965,1.053c-1.597,0-2.396-0.855-2.396-2.567
			c0-0.552,0.071-1.167,0.215-1.848l1.343-6.338h-1.676l0.204-0.881c1.433,0,2.553-1.027,3.362-3.083h1.01l-0.569,2.707h2.664
			l-0.269,1.257h-2.664l-1.332,6.273c-0.179,0.845-0.269,1.476-0.269,1.891c0,0.802,0.391,1.203,1.171,1.203
			C250.383,119.56,250.981,119.399,251.583,119.077z"/>
		<path fill="#ed3a4b" d="M254.87,111.052l0.086-0.924c1.497-0.336,2.245-0.952,2.245-1.848c0-0.258-0.236-0.537-0.709-0.838
			c-0.479-0.301-0.72-0.673-0.72-1.117c0-0.394,0.125-0.709,0.376-0.945s0.58-0.354,0.988-0.354c0.494,0,0.904,0.167,1.23,0.5
			c0.325,0.333,0.488,0.768,0.488,1.305c0,1.082-0.346,1.991-1.036,2.729C257.127,110.297,256.144,110.794,254.87,111.052z"/>
		<path fill="#ed3a4b" d="M265.429,112.191c0-0.737-0.174-1.328-0.521-1.772c-0.348-0.444-0.833-0.666-1.456-0.666
			c-0.659,0-1.18,0.177-1.562,0.532c-0.384,0.354-0.575,0.808-0.575,1.359c0,0.487,0.183,0.902,0.548,1.246s0.931,0.684,1.697,1.021
			c1.762,0.788,2.643,1.927,2.643,3.416c0,1.081-0.415,1.955-1.246,2.621s-1.934,0.999-3.309,0.999c-1.11,0-1.992-0.224-2.647-0.672
			c-0.655-0.447-0.983-1.051-0.983-1.81c0-0.473,0.131-0.833,0.393-1.079c0.261-0.248,0.592-0.371,0.993-0.371
			c0,0.91,0.221,1.617,0.661,2.121c0.44,0.506,1.058,0.758,1.853,0.758c1.583,0,2.374-0.68,2.374-2.041
			c0-0.522-0.168-0.965-0.505-1.326s-0.909-0.729-1.719-1.102c-1.053-0.501-1.76-1.019-2.121-1.552
			c-0.362-0.533-0.543-1.151-0.543-1.853c0-0.959,0.393-1.746,1.177-2.358s1.806-0.918,3.066-0.918c1.081,0,1.925,0.201,2.53,0.602
			c0.604,0.401,0.907,0.896,0.907,1.482C267.083,111.736,266.532,112.191,265.429,112.191z"/>
		<path fill="#ed3a4b" d="M278.449,111.708c1.218-1.977,2.574-2.965,4.071-2.965c1.568,0,2.353,0.813,2.353,2.438
			c0,0.466-0.133,1.271-0.397,2.417l-0.569,2.6c-0.193,0.881-0.29,1.65-0.29,2.31c0,0.702,0.258,1.053,0.773,1.053
			c0.423,0,0.892-0.168,1.407-0.505l0.397,0.645c-0.96,0.831-1.854,1.246-2.686,1.246c-0.608,0-1.094-0.197-1.455-0.591
			c-0.362-0.394-0.543-0.927-0.543-1.601c0-0.673,0.14-1.665,0.419-2.976l0.505-2.277c0.215-0.888,0.322-1.572,0.322-2.052
			c0-0.866-0.337-1.3-1.01-1.3c-0.816,0-1.656,0.557-2.519,1.67c-0.863,1.114-1.409,2.208-1.639,3.282l-1.182,5.629h-2.052
			l2.857-13.6c0.136-0.645,0.204-1.031,0.204-1.16c0-0.688-0.516-1.031-1.547-1.031h-0.172l0.193-0.924h4.05l-0.859,4.039
			c-0.258,1.203-0.548,2.421-0.87,3.652H278.449z"/>
		<path fill="#ed3a4b" d="M294.068,108.721c1.296,0,2.316,0.391,3.062,1.171c0.745,0.781,1.117,1.909,1.117,3.384
			c0,1.955-0.598,3.723-1.794,5.301c-1.196,1.58-2.768,2.369-4.716,2.369c-1.325,0-2.359-0.4-3.104-1.203
			c-0.745-0.802-1.117-1.916-1.117-3.341c0-1.977,0.604-3.75,1.811-5.323C290.532,109.507,292.113,108.721,294.068,108.721z
			 M291.984,119.872c1.21,0,2.176-0.718,2.896-2.154c0.72-1.436,1.079-3.027,1.079-4.774c0-2.041-0.716-3.062-2.148-3.062
			c-1.196,0-2.163,0.72-2.9,2.159s-1.106,3.04-1.106,4.802C289.803,118.862,290.53,119.872,291.984,119.872z"/>
		<path fill="#ed3a4b" d="M305.82,119.077l0.376,0.816c-0.988,0.702-1.977,1.053-2.965,1.053c-1.597,0-2.396-0.855-2.396-2.567
			c0-0.552,0.071-1.167,0.215-1.848l1.343-6.338h-1.676l0.204-0.881c1.433,0,2.553-1.027,3.362-3.083h1.01l-0.569,2.707h2.664
			l-0.269,1.257h-2.664l-1.332,6.273c-0.179,0.845-0.269,1.476-0.269,1.891c0,0.802,0.391,1.203,1.171,1.203
			C304.621,119.56,305.218,119.399,305.82,119.077z"/>
	</g>
</g>
<g id="Layer_3">
	<rect x="82" y="169.667" fill="#ed3a4b" width="267.333" height="59.333"/>
	<g>
		<path fill="#FFFFFF" d="M142.151,204.413c-0.669,0-1.27-0.07-1.801-0.212c-0.531-0.141-0.981-0.365-1.349-0.672
			c-0.368-0.308-0.649-0.703-0.843-1.188s-0.291-1.072-0.291-1.764v-6.599c0-0.25-0.038-0.45-0.112-0.603
			c-0.075-0.152-0.176-0.27-0.303-0.353s-0.275-0.137-0.444-0.162c-0.169-0.024-0.348-0.037-0.536-0.037h-0.216v-0.714h4.947v0.714
			h-0.224c-0.188,0-0.368,0.014-0.54,0.041c-0.171,0.028-0.32,0.085-0.444,0.171c-0.125,0.086-0.225,0.209-0.299,0.369
			c-0.075,0.16-0.112,0.374-0.112,0.64v6.632c0,0.492,0.07,0.912,0.212,1.258c0.141,0.346,0.337,0.626,0.589,0.843
			c0.252,0.215,0.551,0.373,0.896,0.473c0.346,0.1,0.727,0.149,1.142,0.149c0.493,0,0.917-0.066,1.274-0.199
			c0.356-0.133,0.653-0.316,0.888-0.552c0.235-0.235,0.41-0.515,0.523-0.839c0.113-0.323,0.17-0.679,0.17-1.066v-6.765
			c0-0.25-0.037-0.45-0.112-0.603c-0.074-0.152-0.175-0.27-0.303-0.353s-0.275-0.137-0.444-0.162
			c-0.168-0.024-0.347-0.037-0.535-0.037h-0.216v-0.714h4.267v0.714h-0.224c-0.188,0-0.368,0.014-0.54,0.041
			c-0.171,0.028-0.319,0.085-0.444,0.171c-0.124,0.086-0.224,0.209-0.299,0.369c-0.074,0.16-0.112,0.374-0.112,0.64v6.731
			c0,0.564-0.09,1.072-0.27,1.523c-0.18,0.451-0.445,0.833-0.797,1.146c-0.351,0.312-0.787,0.552-1.307,0.718
			S142.826,204.413,142.151,204.413z"/>
		<path fill="#FFFFFF" d="M157.69,199.673c0,0.819-0.076,1.527-0.228,2.125c-0.152,0.598-0.375,1.091-0.668,1.479
			c-0.293,0.387-0.656,0.673-1.087,0.858s-0.927,0.278-1.486,0.278c-0.327,0-0.623-0.036-0.888-0.107
			c-0.266-0.072-0.505-0.175-0.718-0.308c-0.213-0.133-0.401-0.29-0.564-0.474c-0.164-0.182-0.306-0.384-0.428-0.605h-0.066
			c0.011,0.293,0.022,0.567,0.033,0.822c0.005,0.104,0.01,0.214,0.013,0.327c0.002,0.113,0.005,0.22,0.008,0.319
			c0.003,0.1,0.006,0.19,0.009,0.271c0.002,0.08,0.004,0.143,0.004,0.187v1.627c0,0.249,0.037,0.449,0.112,0.602
			c0.074,0.152,0.175,0.269,0.303,0.349s0.275,0.133,0.444,0.158c0.168,0.024,0.347,0.037,0.535,0.037h0.05v0.714h-4.574v-0.714
			h0.133c0.194,0,0.375-0.014,0.543-0.042c0.169-0.027,0.315-0.084,0.44-0.17c0.124-0.086,0.224-0.21,0.299-0.373
			c0.074-0.163,0.112-0.378,0.112-0.644v-9.38c0-0.249-0.038-0.449-0.112-0.602c-0.075-0.152-0.176-0.27-0.303-0.354
			c-0.127-0.082-0.275-0.138-0.444-0.166c-0.169-0.027-0.348-0.041-0.536-0.041h-0.216v-0.714h2.972l0.174,1.536h0.066
			c0.127-0.261,0.271-0.496,0.432-0.706s0.346-0.389,0.556-0.535s0.448-0.261,0.714-0.341s0.564-0.12,0.896-0.12
			c0.559,0,1.054,0.093,1.486,0.278s0.794,0.47,1.087,0.854s0.516,0.873,0.668,1.466C157.614,198.157,157.69,198.86,157.69,199.673z
			 M153.93,196.054c-0.443,0-0.812,0.074-1.108,0.221c-0.296,0.146-0.532,0.369-0.709,0.668s-0.303,0.675-0.377,1.129
			c-0.075,0.454-0.112,0.988-0.112,1.602c0,0.593,0.037,1.115,0.112,1.569c0.074,0.454,0.202,0.836,0.382,1.146
			c0.18,0.31,0.417,0.544,0.714,0.701c0.296,0.158,0.668,0.236,1.116,0.236c0.376,0,0.696-0.078,0.959-0.236
			c0.263-0.157,0.479-0.392,0.647-0.701c0.168-0.31,0.292-0.693,0.369-1.149c0.078-0.457,0.116-0.983,0.116-1.581
			c0-0.604-0.039-1.131-0.116-1.582s-0.201-0.826-0.369-1.125c-0.169-0.299-0.388-0.522-0.656-0.672
			C154.628,196.129,154.306,196.054,153.93,196.054z"/>
		<path fill="#FFFFFF" d="M159.06,203.533c0.194,0,0.375-0.014,0.543-0.042c0.169-0.027,0.315-0.084,0.44-0.17
			c0.124-0.086,0.224-0.209,0.299-0.369c0.074-0.16,0.112-0.373,0.112-0.639v-9.115c0-0.248-0.038-0.449-0.112-0.602
			c-0.075-0.152-0.176-0.27-0.303-0.353s-0.275-0.137-0.444-0.162c-0.169-0.024-0.348-0.037-0.536-0.037h-0.216v-0.714h3.212v10.982
			c0,0.266,0.036,0.479,0.108,0.639s0.171,0.283,0.299,0.369s0.275,0.143,0.444,0.17c0.169,0.028,0.35,0.042,0.544,0.042h0.216
			v0.714h-4.823v-0.714H159.06z"/>
		<path fill="#FFFFFF" d="M172.764,199.673c0,1.6-0.339,2.789-1.017,3.57c-0.678,0.779-1.669,1.17-2.976,1.17
			c-0.614,0-1.165-0.097-1.652-0.291c-0.487-0.193-0.901-0.486-1.241-0.879c-0.341-0.394-0.601-0.888-0.78-1.482
			c-0.18-0.595-0.27-1.291-0.27-2.088c0-1.588,0.336-2.77,1.008-3.544c0.673-0.774,1.667-1.162,2.984-1.162
			c0.614,0,1.165,0.096,1.652,0.286c0.487,0.191,0.901,0.481,1.241,0.872c0.341,0.39,0.601,0.88,0.78,1.469
			C172.674,198.184,172.764,198.876,172.764,199.673z M166.472,199.673c0,0.631,0.042,1.188,0.125,1.669s0.217,0.884,0.402,1.208
			c0.186,0.323,0.426,0.568,0.723,0.734c0.296,0.166,0.657,0.249,1.083,0.249s0.786-0.083,1.079-0.249s0.531-0.411,0.714-0.734
			c0.183-0.324,0.314-0.727,0.395-1.208c0.08-0.481,0.12-1.038,0.12-1.669s-0.042-1.184-0.125-1.66
			c-0.083-0.476-0.216-0.872-0.398-1.19s-0.422-0.558-0.718-0.718c-0.296-0.161-0.657-0.241-1.083-0.241s-0.786,0.08-1.079,0.241
			c-0.293,0.16-0.531,0.399-0.714,0.718s-0.315,0.715-0.398,1.19C166.514,198.489,166.472,199.042,166.472,199.673z"/>
		<path fill="#FFFFFF" d="M178.259,195.813c-0.327,0-0.591,0.046-0.792,0.137c-0.202,0.092-0.36,0.221-0.474,0.387
			c-0.113,0.166-0.189,0.362-0.228,0.589s-0.058,0.474-0.058,0.739c-0.47,0-0.829-0.081-1.075-0.241
			c-0.246-0.16-0.369-0.438-0.369-0.83c0-0.293,0.08-0.542,0.241-0.747s0.38-0.372,0.66-0.502c0.28-0.13,0.605-0.226,0.976-0.287
			c0.371-0.061,0.767-0.091,1.187-0.091c0.52,0,0.974,0.051,1.361,0.153s0.711,0.27,0.971,0.502s0.455,0.536,0.585,0.909
			c0.13,0.374,0.196,0.832,0.196,1.374v4.408c0,0.237,0.02,0.434,0.058,0.589s0.1,0.279,0.183,0.374
			c0.084,0.094,0.191,0.16,0.328,0.199c0.135,0.038,0.297,0.058,0.486,0.058h0.049v0.714h-2.299l-0.266-1.461h-0.141
			c-0.177,0.238-0.349,0.457-0.515,0.656s-0.349,0.37-0.548,0.514c-0.199,0.145-0.425,0.257-0.676,0.337
			c-0.252,0.08-0.555,0.12-0.909,0.12c-0.376,0-0.727-0.054-1.05-0.162c-0.324-0.107-0.604-0.273-0.839-0.498
			c-0.235-0.224-0.419-0.506-0.552-0.847c-0.133-0.34-0.199-0.743-0.199-1.208c0-0.901,0.321-1.571,0.963-2.008
			c0.642-0.438,1.613-0.676,2.914-0.715l1.411-0.049v-1.021c0-0.305-0.017-0.585-0.05-0.843c-0.033-0.257-0.105-0.479-0.216-0.664
			s-0.27-0.329-0.477-0.432C178.886,195.864,178.608,195.813,178.259,195.813z M176.201,201.782c0,0.531,0.112,0.928,0.336,1.19
			c0.224,0.263,0.571,0.395,1.042,0.395c0.343,0,0.654-0.056,0.934-0.166c0.279-0.11,0.517-0.269,0.714-0.474
			c0.196-0.204,0.347-0.453,0.452-0.746c0.105-0.294,0.158-0.62,0.158-0.98v-1.377l-1.087,0.049
			c-0.481,0.022-0.884,0.082-1.208,0.179c-0.323,0.097-0.585,0.232-0.784,0.407c-0.199,0.174-0.342,0.389-0.428,0.643
			C176.244,201.156,176.201,201.45,176.201,201.782z"/>
		<path fill="#FFFFFF" d="M191.873,202.38c0,0.248,0.037,0.449,0.112,0.602c0.074,0.152,0.176,0.27,0.303,0.353
			s0.275,0.137,0.444,0.162c0.169,0.024,0.347,0.037,0.535,0.037h0.141v0.714h-2.88l-0.183-1.527h-0.066
			c-0.127,0.26-0.272,0.494-0.436,0.701c-0.163,0.208-0.351,0.385-0.561,0.531s-0.448,0.261-0.714,0.341s-0.564,0.12-0.896,0.12
			c-0.559,0-1.054-0.093-1.485-0.278s-0.795-0.47-1.088-0.854s-0.515-0.873-0.664-1.465c-0.149-0.593-0.225-1.295-0.225-2.109
			c0-0.818,0.075-1.527,0.225-2.125s0.371-1.09,0.664-1.477c0.293-0.388,0.656-0.674,1.088-0.859s0.927-0.278,1.485-0.278
			c0.326,0,0.622,0.036,0.888,0.108c0.266,0.071,0.506,0.174,0.719,0.307s0.402,0.291,0.568,0.473
			c0.166,0.184,0.31,0.385,0.432,0.606h0.1c-0.017-0.276-0.033-0.537-0.05-0.78c-0.011-0.21-0.022-0.419-0.033-0.627
			c-0.011-0.207-0.017-0.361-0.017-0.461v-1.395c0-0.248-0.037-0.449-0.112-0.602c-0.074-0.152-0.176-0.27-0.303-0.353
			s-0.275-0.137-0.444-0.162c-0.169-0.024-0.347-0.037-0.535-0.037h-0.141v-0.714h3.129V202.38z M187.962,203.325
			c0.443,0,0.812-0.073,1.108-0.22s0.534-0.369,0.714-0.668s0.308-0.675,0.382-1.129c0.075-0.454,0.112-0.987,0.112-1.603
			c0-0.592-0.037-1.114-0.112-1.568c-0.074-0.454-0.202-0.834-0.382-1.142c-0.18-0.307-0.419-0.541-0.718-0.701
			s-0.673-0.241-1.12-0.241c-0.371,0-0.689,0.081-0.955,0.241s-0.482,0.396-0.651,0.706c-0.169,0.31-0.292,0.692-0.37,1.149
			c-0.077,0.456-0.115,0.98-0.115,1.573c0,1.206,0.163,2.107,0.489,2.705S187.21,203.325,187.962,203.325z"/>
		<path fill="#FFFFFF" d="M203.833,203.533v0.714h-5.254v-0.714h0.224c0.193,0,0.375-0.014,0.544-0.042
			c0.169-0.027,0.315-0.084,0.439-0.17c0.125-0.086,0.225-0.209,0.299-0.369c0.075-0.16,0.112-0.373,0.112-0.639v-6.375h-1.552
			v-0.806h1.552v-0.847c0-0.509,0.069-0.957,0.208-1.345c0.138-0.388,0.337-0.714,0.598-0.979c0.26-0.266,0.575-0.466,0.945-0.602
			c0.371-0.136,0.789-0.203,1.254-0.203c0.442,0,0.816,0.028,1.121,0.087c0.304,0.058,0.549,0.14,0.734,0.245
			c0.186,0.104,0.319,0.229,0.402,0.373s0.125,0.305,0.125,0.481c0,0.155-0.035,0.292-0.104,0.411s-0.166,0.219-0.29,0.299
			c-0.125,0.08-0.271,0.141-0.44,0.183c-0.169,0.041-0.355,0.062-0.56,0.062c0-0.171-0.019-0.339-0.055-0.502
			s-0.097-0.309-0.183-0.436s-0.2-0.229-0.345-0.307c-0.144-0.078-0.323-0.117-0.539-0.117c-0.243,0-0.447,0.048-0.61,0.142
			s-0.294,0.233-0.394,0.419s-0.171,0.414-0.212,0.686c-0.042,0.271-0.062,0.586-0.062,0.945v1.005h2.399v0.806h-2.399v6.375
			c0,0.266,0.037,0.479,0.112,0.639c0.074,0.16,0.174,0.283,0.299,0.369c0.124,0.086,0.272,0.143,0.443,0.17
			c0.172,0.028,0.352,0.042,0.54,0.042H203.833z"/>
		<path fill="#FFFFFF" d="M209.869,204.247h-4.906v-0.714h0.05c0.193,0,0.375-0.014,0.544-0.042c0.169-0.027,0.315-0.084,0.439-0.17
			c0.125-0.086,0.225-0.209,0.299-0.369c0.075-0.16,0.112-0.373,0.112-0.639v-5.305c0-0.249-0.037-0.449-0.112-0.602
			c-0.074-0.152-0.176-0.27-0.303-0.354c-0.127-0.082-0.275-0.138-0.444-0.166c-0.169-0.027-0.347-0.041-0.535-0.041h-0.05v-0.714
			h2.615l0.323,1.685h0.083c0.11-0.254,0.225-0.493,0.34-0.718c0.117-0.224,0.259-0.42,0.428-0.589s0.378-0.302,0.627-0.398
			s0.562-0.146,0.938-0.146c0.62,0,1.081,0.108,1.383,0.323c0.302,0.217,0.452,0.521,0.452,0.914c0,0.177-0.029,0.34-0.087,0.489
			c-0.059,0.149-0.151,0.278-0.278,0.386c-0.127,0.108-0.29,0.191-0.489,0.249c-0.199,0.059-0.443,0.087-0.73,0.087
			c0-0.47-0.066-0.809-0.199-1.017c-0.133-0.207-0.365-0.312-0.697-0.312c-0.211,0-0.398,0.06-0.564,0.179s-0.312,0.277-0.437,0.474
			c-0.124,0.196-0.229,0.422-0.315,0.676c-0.086,0.255-0.154,0.517-0.207,0.785s-0.09,0.535-0.112,0.801S208,199.507,208,199.724
			v2.672c0,0.25,0.037,0.45,0.112,0.603c0.074,0.152,0.176,0.267,0.303,0.345c0.127,0.077,0.275,0.128,0.444,0.153
			c0.169,0.024,0.347,0.037,0.535,0.037h0.474V204.247z"/>
		<path fill="#FFFFFF" d="M221.281,199.673c0,1.6-0.339,2.789-1.017,3.57c-0.678,0.779-1.67,1.17-2.976,1.17
			c-0.614,0-1.165-0.097-1.652-0.291c-0.486-0.193-0.9-0.486-1.24-0.879c-0.341-0.394-0.601-0.888-0.78-1.482
			s-0.271-1.291-0.271-2.088c0-1.588,0.337-2.77,1.009-3.544c0.673-0.774,1.667-1.162,2.984-1.162c0.614,0,1.165,0.096,1.651,0.286
			c0.487,0.191,0.901,0.481,1.241,0.872c0.341,0.39,0.601,0.88,0.78,1.469C221.191,198.184,221.281,198.876,221.281,199.673z
			 M214.991,199.673c0,0.631,0.041,1.188,0.124,1.669s0.217,0.884,0.402,1.208c0.186,0.323,0.427,0.568,0.722,0.734
			c0.296,0.166,0.657,0.249,1.083,0.249s0.786-0.083,1.079-0.249s0.531-0.411,0.714-0.734c0.183-0.324,0.314-0.727,0.395-1.208
			s0.12-1.038,0.12-1.669s-0.042-1.184-0.124-1.66c-0.084-0.476-0.217-0.872-0.398-1.19c-0.184-0.318-0.423-0.558-0.719-0.718
			c-0.296-0.161-0.657-0.241-1.083-0.241s-0.786,0.08-1.079,0.241c-0.292,0.16-0.531,0.399-0.713,0.718s-0.315,0.715-0.398,1.19
			C215.032,198.489,214.991,199.042,214.991,199.673z"/>
		<path fill="#FFFFFF" d="M227.267,203.533v0.714h-4.574v-0.714h0.225c0.193,0,0.371-0.014,0.531-0.042
			c0.16-0.027,0.299-0.084,0.415-0.17s0.206-0.209,0.27-0.369s0.096-0.373,0.096-0.639v-5.305c0-0.249-0.033-0.449-0.1-0.602
			s-0.157-0.27-0.274-0.354c-0.115-0.082-0.254-0.138-0.414-0.166c-0.161-0.027-0.335-0.041-0.523-0.041h-0.05v-0.714h2.665
			l0.224,1.378h0.083c0.172-0.315,0.352-0.574,0.539-0.776c0.188-0.202,0.39-0.359,0.603-0.473s0.437-0.191,0.672-0.232
			c0.235-0.042,0.485-0.062,0.751-0.062c0.277,0,0.54,0.027,0.789,0.083s0.48,0.144,0.693,0.266s0.403,0.281,0.572,0.478
			s0.306,0.436,0.411,0.718h0.142c0.171-0.315,0.356-0.574,0.556-0.776s0.411-0.359,0.635-0.473c0.225-0.113,0.46-0.191,0.706-0.232
			c0.246-0.042,0.502-0.062,0.768-0.062c0.432,0,0.819,0.065,1.162,0.195s0.634,0.329,0.871,0.598
			c0.238,0.269,0.421,0.612,0.549,1.033c0.127,0.421,0.19,0.921,0.19,1.503v4.018c0,0.266,0.033,0.479,0.1,0.639
			s0.157,0.283,0.274,0.369c0.115,0.086,0.254,0.143,0.414,0.17c0.161,0.028,0.335,0.042,0.523,0.042h0.05v0.714h-2.955v-5.869
			c0-0.37-0.032-0.699-0.096-0.987s-0.166-0.531-0.307-0.73c-0.142-0.199-0.325-0.35-0.552-0.452
			c-0.228-0.103-0.504-0.154-0.83-0.154c-0.354,0-0.652,0.068-0.893,0.204c-0.241,0.136-0.436,0.319-0.586,0.552
			c-0.148,0.232-0.256,0.501-0.319,0.805c-0.063,0.305-0.095,0.629-0.095,0.972v3.728c0,0.266,0.033,0.479,0.1,0.639
			s0.157,0.283,0.273,0.369s0.255,0.143,0.415,0.17c0.16,0.028,0.335,0.042,0.522,0.042h0.051v0.714h-2.955v-5.869
			c0-0.37-0.032-0.699-0.096-0.987s-0.166-0.531-0.308-0.73c-0.141-0.199-0.325-0.35-0.552-0.452s-0.504-0.154-0.83-0.154
			c-0.371,0-0.682,0.075-0.934,0.225s-0.455,0.352-0.61,0.605c-0.155,0.255-0.266,0.549-0.332,0.881s-0.1,0.68-0.1,1.045v3.586
			c0,0.25,0.037,0.45,0.112,0.603c0.074,0.152,0.176,0.267,0.303,0.345c0.127,0.077,0.275,0.128,0.444,0.153
			c0.169,0.024,0.347,0.037,0.535,0.037H227.267z"/>
		<path fill="#FFFFFF" d="M247.513,204.413c-0.564,0-1.085-0.087-1.561-0.262c-0.476-0.174-0.886-0.449-1.229-0.826
			c-0.343-0.376-0.61-0.858-0.801-1.448c-0.191-0.589-0.287-1.302-0.287-2.138c0-0.907,0.096-1.667,0.287-2.278
			c0.19-0.611,0.456-1.103,0.797-1.474c0.34-0.37,0.741-0.633,1.203-0.788s0.962-0.232,1.498-0.232c0.354,0,0.707,0.034,1.059,0.104
			s0.668,0.176,0.951,0.319c0.281,0.145,0.512,0.325,0.688,0.544s0.266,0.475,0.266,0.769c0,0.393-0.127,0.669-0.382,0.83
			c-0.255,0.16-0.634,0.24-1.137,0.24c0-0.266-0.022-0.518-0.066-0.756c-0.045-0.237-0.121-0.446-0.229-0.626
			c-0.108-0.18-0.255-0.321-0.44-0.424s-0.422-0.153-0.71-0.153c-0.326,0-0.621,0.061-0.884,0.183s-0.488,0.332-0.677,0.631
			c-0.188,0.299-0.332,0.7-0.432,1.204c-0.1,0.503-0.148,1.134-0.148,1.893c0,1.206,0.2,2.105,0.602,2.697s1.059,0.889,1.971,0.889
			c0.526,0,0.985-0.111,1.379-0.332c0.393-0.222,0.686-0.507,0.879-0.855c0.084,0.066,0.152,0.155,0.208,0.266
			s0.083,0.243,0.083,0.398c0,0.193-0.061,0.388-0.183,0.581s-0.303,0.368-0.544,0.522c-0.24,0.155-0.541,0.281-0.9,0.378
			S247.994,204.413,247.513,204.413z"/>
		<path fill="#FFFFFF" d="M259.938,199.673c0,1.6-0.339,2.789-1.017,3.57c-0.678,0.779-1.67,1.17-2.976,1.17
			c-0.614,0-1.165-0.097-1.652-0.291c-0.486-0.193-0.9-0.486-1.24-0.879c-0.341-0.394-0.601-0.888-0.78-1.482
			s-0.271-1.291-0.271-2.088c0-1.588,0.337-2.77,1.009-3.544c0.673-0.774,1.667-1.162,2.984-1.162c0.614,0,1.165,0.096,1.651,0.286
			c0.487,0.191,0.901,0.481,1.241,0.872c0.341,0.39,0.601,0.88,0.78,1.469C259.849,198.184,259.938,198.876,259.938,199.673z
			 M253.647,199.673c0,0.631,0.041,1.188,0.124,1.669s0.217,0.884,0.402,1.208c0.186,0.323,0.427,0.568,0.723,0.734
			s0.657,0.249,1.083,0.249s0.786-0.083,1.079-0.249s0.531-0.411,0.714-0.734c0.183-0.324,0.314-0.727,0.395-1.208
			s0.12-1.038,0.12-1.669s-0.042-1.184-0.124-1.66c-0.084-0.476-0.217-0.872-0.398-1.19c-0.184-0.318-0.423-0.558-0.719-0.718
			c-0.296-0.161-0.657-0.241-1.083-0.241s-0.786,0.08-1.079,0.241c-0.293,0.16-0.531,0.399-0.714,0.718s-0.315,0.715-0.398,1.19
			C253.688,198.489,253.647,199.042,253.647,199.673z"/>
		<path fill="#FFFFFF" d="M265.923,203.533v0.714h-4.574v-0.714h0.225c0.193,0,0.371-0.014,0.531-0.042
			c0.16-0.027,0.299-0.084,0.415-0.17s0.206-0.209,0.27-0.369s0.096-0.373,0.096-0.639v-5.305c0-0.249-0.033-0.449-0.1-0.602
			s-0.157-0.27-0.274-0.354c-0.115-0.082-0.254-0.138-0.414-0.166c-0.161-0.027-0.335-0.041-0.523-0.041h-0.05v-0.714h2.665
			l0.224,1.378h0.083c0.172-0.315,0.352-0.574,0.539-0.776c0.188-0.202,0.39-0.359,0.603-0.473s0.437-0.191,0.672-0.232
			c0.235-0.042,0.485-0.062,0.751-0.062c0.277,0,0.54,0.027,0.789,0.083s0.48,0.144,0.693,0.266s0.403,0.281,0.572,0.478
			s0.306,0.436,0.411,0.718h0.142c0.171-0.315,0.356-0.574,0.556-0.776s0.411-0.359,0.635-0.473c0.225-0.113,0.46-0.191,0.706-0.232
			c0.246-0.042,0.502-0.062,0.768-0.062c0.432,0,0.819,0.065,1.162,0.195s0.634,0.329,0.871,0.598
			c0.238,0.269,0.421,0.612,0.549,1.033c0.127,0.421,0.19,0.921,0.19,1.503v4.018c0,0.266,0.033,0.479,0.1,0.639
			s0.157,0.283,0.274,0.369c0.115,0.086,0.254,0.143,0.414,0.17c0.161,0.028,0.335,0.042,0.523,0.042h0.05v0.714h-2.955v-5.869
			c0-0.37-0.032-0.699-0.096-0.987s-0.166-0.531-0.307-0.73c-0.142-0.199-0.325-0.35-0.552-0.452
			c-0.228-0.103-0.504-0.154-0.83-0.154c-0.354,0-0.652,0.068-0.893,0.204c-0.241,0.136-0.436,0.319-0.586,0.552
			c-0.148,0.232-0.256,0.501-0.319,0.805c-0.063,0.305-0.095,0.629-0.095,0.972v3.728c0,0.266,0.033,0.479,0.1,0.639
			s0.157,0.283,0.273,0.369s0.255,0.143,0.415,0.17c0.16,0.028,0.335,0.042,0.522,0.042h0.051v0.714h-2.955v-5.869
			c0-0.37-0.032-0.699-0.096-0.987s-0.166-0.531-0.308-0.73c-0.141-0.199-0.325-0.35-0.552-0.452s-0.504-0.154-0.83-0.154
			c-0.371,0-0.682,0.075-0.934,0.225s-0.455,0.352-0.61,0.605c-0.155,0.255-0.266,0.549-0.332,0.881s-0.1,0.68-0.1,1.045v3.586
			c0,0.25,0.037,0.45,0.112,0.603c0.074,0.152,0.176,0.267,0.303,0.345c0.127,0.077,0.275,0.128,0.444,0.153
			c0.169,0.024,0.347,0.037,0.535,0.037H265.923z"/>
		<path fill="#FFFFFF" d="M286.442,199.673c0,0.819-0.075,1.527-0.228,2.125s-0.375,1.091-0.669,1.479
			c-0.293,0.387-0.655,0.673-1.087,0.858s-0.927,0.278-1.485,0.278c-0.327,0-0.623-0.036-0.889-0.107
			c-0.266-0.072-0.505-0.175-0.718-0.308s-0.401-0.29-0.564-0.474c-0.163-0.182-0.306-0.384-0.428-0.605h-0.066
			c0.011,0.293,0.022,0.567,0.033,0.822c0.006,0.104,0.01,0.214,0.013,0.327s0.005,0.22,0.008,0.319s0.006,0.19,0.009,0.271
			s0.004,0.143,0.004,0.187v1.627c0,0.249,0.037,0.449,0.112,0.602c0.074,0.152,0.176,0.269,0.303,0.349s0.275,0.133,0.444,0.158
			c0.169,0.024,0.347,0.037,0.535,0.037h0.05v0.714h-4.574v-0.714h0.133c0.194,0,0.375-0.014,0.544-0.042
			c0.169-0.027,0.315-0.084,0.44-0.17c0.124-0.086,0.224-0.21,0.299-0.373c0.074-0.163,0.111-0.378,0.111-0.644v-9.38
			c0-0.249-0.037-0.449-0.111-0.602c-0.075-0.152-0.176-0.27-0.303-0.354c-0.128-0.082-0.275-0.138-0.444-0.166
			c-0.169-0.027-0.348-0.041-0.536-0.041h-0.215v-0.714h2.971l0.175,1.536h0.066c0.127-0.261,0.271-0.496,0.432-0.706
			s0.346-0.389,0.556-0.535c0.211-0.146,0.449-0.261,0.715-0.341s0.564-0.12,0.896-0.12c0.559,0,1.054,0.093,1.485,0.278
			s0.794,0.47,1.087,0.854c0.294,0.385,0.517,0.873,0.669,1.466C286.367,198.157,286.442,198.86,286.442,199.673z M282.683,196.054
			c-0.442,0-0.812,0.074-1.108,0.221s-0.532,0.369-0.71,0.668c-0.177,0.299-0.303,0.675-0.377,1.129
			c-0.075,0.454-0.112,0.988-0.112,1.602c0,0.593,0.037,1.115,0.112,1.569c0.074,0.454,0.202,0.836,0.382,1.146
			s0.418,0.544,0.714,0.701c0.296,0.158,0.668,0.236,1.116,0.236c0.376,0,0.696-0.078,0.959-0.236
			c0.263-0.157,0.479-0.392,0.647-0.701s0.292-0.693,0.369-1.149c0.077-0.457,0.116-0.983,0.116-1.581
			c0-0.604-0.039-1.131-0.116-1.582s-0.2-0.826-0.369-1.125s-0.388-0.522-0.656-0.672S283.059,196.054,282.683,196.054z"/>
		<path fill="#FFFFFF" d="M296.329,202.396c0,0.25,0.037,0.45,0.111,0.603c0.075,0.152,0.176,0.267,0.303,0.345
			c0.128,0.077,0.275,0.128,0.444,0.153c0.169,0.024,0.348,0.037,0.536,0.037h0.049v0.714h-2.697l-0.225-1.378h-0.082
			c-0.172,0.321-0.361,0.581-0.569,0.78c-0.207,0.199-0.427,0.355-0.659,0.469s-0.477,0.191-0.73,0.232
			c-0.255,0.042-0.521,0.062-0.797,0.062c-0.449,0-0.848-0.063-1.195-0.191c-0.35-0.127-0.643-0.326-0.881-0.598
			c-0.237-0.271-0.419-0.616-0.543-1.037c-0.125-0.421-0.188-0.922-0.188-1.502v-4.076c0-0.249-0.037-0.449-0.111-0.602
			c-0.075-0.152-0.176-0.27-0.303-0.354c-0.128-0.082-0.275-0.138-0.444-0.166c-0.169-0.027-0.348-0.041-0.536-0.041h-0.049v-0.714
			h3.046v5.868c0,0.371,0.029,0.7,0.087,0.988c0.059,0.288,0.155,0.531,0.291,0.73s0.318,0.35,0.548,0.452s0.516,0.153,0.858,0.153
			c0.377,0,0.699-0.066,0.968-0.199s0.489-0.319,0.664-0.56c0.174-0.241,0.303-0.53,0.386-0.868c0.083-0.337,0.125-0.711,0.125-1.12
			v-3.503c0-0.266-0.038-0.48-0.112-0.644c-0.075-0.163-0.175-0.287-0.299-0.373c-0.125-0.086-0.271-0.143-0.44-0.171
			c-0.169-0.027-0.35-0.041-0.543-0.041h-0.051v-0.714h3.039V202.396z"/>
		<path fill="#FFFFFF" d="M302.671,203.517c0.204,0,0.393-0.011,0.564-0.033c0.171-0.022,0.346-0.05,0.522-0.083v0.747
			c-0.072,0.033-0.166,0.066-0.282,0.1s-0.242,0.062-0.378,0.087c-0.136,0.025-0.278,0.045-0.427,0.059
			c-0.15,0.014-0.291,0.021-0.424,0.021c-0.432,0-0.803-0.046-1.112-0.137c-0.31-0.092-0.564-0.239-0.764-0.444
			s-0.348-0.476-0.444-0.813s-0.145-0.75-0.145-1.236v-5.678h-1.295v-0.682c0.204,0,0.43-0.041,0.676-0.124s0.464-0.222,0.652-0.415
			c0.193-0.21,0.35-0.461,0.469-0.751c0.119-0.291,0.223-0.654,0.311-1.092h0.781v2.092h2.225v0.972h-2.225v5.727
			c0,0.582,0.117,1.008,0.353,1.279C301.964,203.381,302.277,203.517,302.671,203.517z"/>
		<path fill="#FFFFFF" d="M309.029,204.413c-0.614,0-1.166-0.104-1.656-0.312c-0.489-0.207-0.903-0.511-1.24-0.909
			c-0.338-0.398-0.597-0.887-0.776-1.465s-0.271-1.235-0.271-1.971c0-1.589,0.327-2.784,0.98-3.586
			c0.652-0.803,1.582-1.204,2.789-1.204c0.547,0,1.04,0.086,1.477,0.257c0.438,0.172,0.809,0.428,1.113,0.769
			c0.304,0.34,0.538,0.764,0.701,1.27c0.163,0.507,0.244,1.095,0.244,1.765v0.779h-5.66c0.011,0.62,0.073,1.153,0.187,1.599
			s0.276,0.812,0.489,1.1s0.475,0.499,0.785,0.635c0.31,0.136,0.666,0.204,1.07,0.204c0.293,0,0.565-0.033,0.817-0.1
			s0.48-0.155,0.685-0.266c0.205-0.111,0.387-0.237,0.544-0.378c0.158-0.142,0.286-0.289,0.386-0.444
			c0.078,0.033,0.151,0.103,0.221,0.207c0.069,0.105,0.104,0.23,0.104,0.374c0,0.172-0.061,0.355-0.183,0.552
			s-0.308,0.378-0.556,0.544c-0.25,0.166-0.561,0.305-0.935,0.415C309.972,204.357,309.533,204.413,309.029,204.413z
			 M308.822,195.88c-0.631,0-1.117,0.256-1.457,0.768c-0.341,0.512-0.541,1.261-0.602,2.246h3.909c0-0.449-0.033-0.858-0.1-1.229
			c-0.066-0.371-0.172-0.689-0.315-0.955s-0.333-0.471-0.568-0.614S309.165,195.88,308.822,195.88z"/>
		<path fill="#FFFFFF" d="M318.717,204.247h-4.906v-0.714h0.05c0.193,0,0.375-0.014,0.544-0.042c0.169-0.027,0.315-0.084,0.439-0.17
			c0.125-0.086,0.225-0.209,0.299-0.369c0.075-0.16,0.112-0.373,0.112-0.639v-5.305c0-0.249-0.037-0.449-0.112-0.602
			c-0.074-0.152-0.176-0.27-0.303-0.354c-0.127-0.082-0.275-0.138-0.444-0.166c-0.169-0.027-0.347-0.041-0.535-0.041h-0.05v-0.714
			h2.615l0.323,1.685h0.083c0.11-0.254,0.225-0.493,0.34-0.718c0.117-0.224,0.259-0.42,0.428-0.589s0.378-0.302,0.627-0.398
			s0.562-0.146,0.938-0.146c0.62,0,1.081,0.108,1.383,0.323c0.302,0.217,0.452,0.521,0.452,0.914c0,0.177-0.029,0.34-0.087,0.489
			c-0.059,0.149-0.151,0.278-0.278,0.386c-0.127,0.108-0.29,0.191-0.489,0.249c-0.199,0.059-0.443,0.087-0.73,0.087
			c0-0.47-0.066-0.809-0.199-1.017c-0.133-0.207-0.365-0.312-0.697-0.312c-0.211,0-0.398,0.06-0.564,0.179s-0.312,0.277-0.437,0.474
			c-0.124,0.196-0.229,0.422-0.315,0.676c-0.086,0.255-0.154,0.517-0.207,0.785s-0.09,0.535-0.112,0.801s-0.033,0.506-0.033,0.723
			v2.672c0,0.25,0.037,0.45,0.112,0.603c0.074,0.152,0.176,0.267,0.303,0.345c0.127,0.077,0.275,0.128,0.444,0.153
			c0.169,0.024,0.347,0.037,0.535,0.037h0.474V204.247z"/>
	</g>
	<g>
		<path fill="#FFFFFF" d="M120.459,205.897c0,0.503-0.408,0.911-0.911,0.911h-13.971c-0.503,0-0.911-0.408-0.911-0.911v-3.037
			c0-0.503,0.408-0.911,0.911-0.911h4.053c0.256,0.702,0.93,1.215,1.718,1.215h2.43c0.788,0,1.461-0.513,1.718-1.215h4.053
			c0.503,0,0.911,0.408,0.911,0.911V205.897z M116.815,197.09h-2.43v4.252c0,0.332-0.275,0.607-0.607,0.607h-2.43
			c-0.332,0-0.607-0.275-0.607-0.607v-4.252h-2.43c-0.247,0-0.465-0.151-0.56-0.38c-0.095-0.218-0.047-0.483,0.133-0.654
			l4.252-4.252c0.114-0.124,0.275-0.181,0.427-0.181s0.313,0.057,0.427,0.181l4.252,4.252c0.18,0.171,0.228,0.437,0.133,0.654
			C117.28,196.938,117.062,197.09,116.815,197.09z M116.208,204.379c-0.332,0-0.607,0.275-0.607,0.607s0.275,0.607,0.607,0.607
			s0.607-0.275,0.607-0.607S116.54,204.379,116.208,204.379z M118.637,204.379c-0.332,0-0.607,0.275-0.607,0.607
			s0.275,0.607,0.607,0.607s0.607-0.275,0.607-0.607S118.969,204.379,118.637,204.379z"/>
	</g>
</g>
</svg>
