<?xml version="1.0" encoding="utf-8"?>
<!-- Generator: Adobe Illustrator 16.0.0, SVG Export Plug-In . SVG Version: 6.00 Build 0)  -->
<!DOCTYPE svg PUBLIC "-//W3C//DTD SVG 1.1//EN" "http://www.w3.org/Graphics/SVG/1.1/DTD/svg11.dtd">
<svg version="1.1" id="Layer_1" xmlns="http://www.w3.org/2000/svg" xmlns:xlink="http://www.w3.org/1999/xlink" x="0px" y="0px"
	 width="220px" height="220px" viewBox="0 0 220 220" enable-background="new 0 0 220 220" xml:space="preserve">
<path fill="#4D5144" d="M183.333,114.576c0,3.729-2.288,7.02-5.578,8.461c-1.16,0.423-2.444,0.721-3.589,0.721
	c-2.429,0-4.716-0.861-6.439-2.727l-20.621-20.621l-76.491,76.482c-3.581,3.589-9.316,3.589-12.896,0l-14.604-14.619
	c-3.581-3.572-3.581-9.308,0-12.88l76.483-76.491L98.968,52.282c-2.719-2.578-3.432-6.589-2.005-10.029
	c1.434-3.291,4.732-5.586,8.454-5.586h68.75c5.015,0,9.167,4.152,9.167,9.167V114.576z M220,41.25C220,18.475,201.525,0,178.758,0
	H41.25C18.474,0,0,18.475,0,41.25v137.508C0,201.526,18.474,220,41.25,220h137.508C201.525,220,220,201.526,220,178.758V41.25z"/>
</svg>
