<?xml version="1.0" encoding="utf-8"?>
<!-- Generator: Adobe Illustrator 16.0.0, SVG Export Plug-In . SVG Version: 6.00 Build 0)  -->
<!DOCTYPE svg PUBLIC "-//W3C//DTD SVG 1.1//EN" "http://www.w3.org/Graphics/SVG/1.1/DTD/svg11.dtd">
<svg version="1.1" id="Layer_1" xmlns="http://www.w3.org/2000/svg" xmlns:xlink="http://www.w3.org/1999/xlink" x="0px" y="0px"
	 width="283.46px" height="283.46px" viewBox="0 0 283.46 283.46" enable-background="new 0 0 283.46 283.46" xml:space="preserve">
<path fill="#fff" d="M270.064,233.416c0-41.03-9.641-104.033-62.831-104.033c-5.628,0-29.41,25.225-64.984,25.225
	c-35.612,0-59.394-25.225-65.021-25.225c-53.216,0-62.831,63.002-62.831,104.033c0,29.41,19.598,47.026,48.469,47.026H221.57
	C250.441,280.442,270.064,262.826,270.064,233.416z M211.979,71.262c0-38.499-31.27-69.731-69.73-69.731
	c-38.523,0-69.743,31.232-69.743,69.731c0,38.499,31.22,69.718,69.743,69.718C180.709,140.98,211.979,109.76,211.979,71.262z"/>
</svg>
