<?xml version="1.0" encoding="iso-8859-1"?>
<!-- Generator: Adobe Illustrator 16.0.0, SVG Export Plug-In . SVG Version: 6.00 Build 0)  -->
<!DOCTYPE svg PUBLIC "-//W3C//DTD SVG 1.1//EN" "http://www.w3.org/Graphics/SVG/1.1/DTD/svg11.dtd">
<svg version="1.1" xmlns="http://www.w3.org/2000/svg" xmlns:xlink="http://www.w3.org/1999/xlink" x="0px" y="0px"
	 width="263.218px" height="283.46px" viewBox="0 0 263.218 283.46" style="enable-background:new 0 0 263.218 283.46;"
	 xml:space="preserve">
<g id="event">
	<path style="fill:#fff;" d="M20.248,263.218V217.66h45.557v45.558H20.248z M75.928,263.218V217.66h50.619v45.558H75.928z
		 M20.248,207.537v-50.619h45.557v50.619H20.248z M75.928,207.537v-50.619h50.619v50.619H75.928z M20.248,146.794v-45.557h45.557
		v45.557H20.248z M136.67,263.218V217.66h50.619v45.558H136.67z M75.928,146.794v-45.557h50.619v45.557H75.928z M197.413,263.218
		V217.66h45.557v45.558H197.413z M136.67,207.537v-50.619h50.619v50.619H136.67z M80.99,70.866c0,2.689-2.373,5.062-5.062,5.062
		H65.804c-2.689,0-5.062-2.373-5.062-5.062V25.31c0-2.689,2.373-5.062,5.062-5.062h10.124c2.689,0,5.062,2.373,5.062,5.062V70.866z
		 M197.413,207.537v-50.619h45.557v50.619H197.413z M136.67,146.794v-45.557h50.619v45.557H136.67z M197.413,146.794v-45.557h45.557
		v45.557H197.413z M202.475,70.866c0,2.689-2.373,5.062-5.062,5.062h-10.124c-2.689,0-5.062-2.373-5.062-5.062V25.31
		c0-2.689,2.372-5.062,5.062-5.062h10.124c2.688,0,5.062,2.373,5.062,5.062V70.866z M263.218,60.743
		c0-11.073-9.176-20.248-20.248-20.248h-20.248V25.31c0-13.92-11.389-25.31-25.309-25.31h-10.124c-13.92,0-25.31,11.389-25.31,25.31
		v15.186h-60.742V25.31c0-13.92-11.389-25.31-25.31-25.31H65.804c-13.92,0-25.309,11.389-25.309,25.31v15.186H20.248
		C9.175,40.495,0,49.669,0,60.743v202.475c0,11.071,9.175,20.247,20.248,20.247H242.97c11.072,0,20.248-9.176,20.248-20.247V60.743z
		"/>
</g>
<g id="Layer_1">
</g>
</svg>
