<?xml version="1.0" encoding="utf-8"?>
<!-- Generator: Adobe Illustrator 16.0.0, SVG Export Plug-In . SVG Version: 6.00 Build 0)  -->
<!DOCTYPE svg PUBLIC "-//W3C//DTD SVG 1.1//EN" "http://www.w3.org/Graphics/SVG/1.1/DTD/svg11.dtd">
<svg version="1.1" id="Layer_1" xmlns="http://www.w3.org/2000/svg" xmlns:xlink="http://www.w3.org/1999/xlink" x="0px" y="0px"
	 width="283.46px" height="283.46px" viewBox="0 0 283.46 283.46" enable-background="new 0 0 283.46 283.46" xml:space="preserve">
<g id="Layer_1_1_">
</g>
<path fill="#A0B477" d="M30.001,260V100.004h219.998V260H30.001z M90.004,70.002c0,2.813-2.188,5.001-5,5.001H75.002
	c-2.812,0-4.999-2.188-4.999-5.001V25.001c0-2.812,2.187-5,4.999-5h10.001c2.812,0,5,2.188,5,5V70.002z M209.998,70.002
	c0,2.813-2.186,5.001-5,5.001h-10.001c-2.812,0-4.999-2.188-4.999-5.001V25.001c0-2.812,2.187-5,4.999-5h10.001c2.814,0,5,2.188,5,5
	V70.002z M270,60.002c0-10.938-9.062-20.001-20.001-20.001H230v-15C230,11.25,218.749,0,204.998,0h-10.001
	c-13.751,0-25,11.25-25,25.001v15h-59.992v-15C110.005,11.25,98.753,0,85.003,0H75.002c-13.75,0-25.001,11.25-25.001,25.001v15h-20
	C19.063,40.001,10,49.064,10,60.002V260c0,10.939,9.063,20,20.001,20h219.998c10.938,0,20.001-9.061,20.001-20V60.002z"/>
</svg>
