<?xml version="1.0" encoding="iso-8859-1"?>
<!-- Generator: Adobe Illustrator 16.0.0, SVG Export Plug-In . SVG Version: 6.00 Build 0)  -->
<!DOCTYPE svg PUBLIC "-//W3C//DTD SVG 1.1//EN" "http://www.w3.org/Graphics/SVG/1.1/DTD/svg11.dtd">
<svg version="1.1" xmlns="http://www.w3.org/2000/svg" xmlns:xlink="http://www.w3.org/1999/xlink" x="0px" y="0px"
	 width="188.977px" height="283.46px" viewBox="0 0 188.977 283.46" style="enable-background:new 0 0 188.977 283.46;"
	 xml:space="preserve">
<g id="location">
	<path style="fill:#e3934c;" d="M141.732,94.483c0,26.021-21.224,47.244-47.244,47.244c-26.021,0-47.244-21.224-47.244-47.244
		c0-26.021,21.223-47.244,47.244-47.244C120.509,47.239,141.732,68.462,141.732,94.483z M188.977,94.483
		c0-52.227-42.262-94.488-94.488-94.488C42.261-0.005,0,42.256,0,94.483c0,11.257,1.292,22.883,6.09,33.034L73.45,270.356
		c3.691,8.12,12.18,13.104,21.039,13.104s17.348-4.983,21.223-13.104l67.175-142.839C187.684,117.367,188.977,105.74,188.977,94.483
		z"/>
</g>
<g id="Layer_1">
</g>
</svg>
