<?xml version="1.0" encoding="iso-8859-1"?>
<!-- Generator: Adobe Illustrator 16.0.0, SVG Export Plug-In . SVG Version: 6.00 Build 0)  -->
<!DOCTYPE svg PUBLIC "-//W3C//DTD SVG 1.1//EN" "http://www.w3.org/Graphics/SVG/1.1/DTD/svg11.dtd">
<svg version="1.1" xmlns="http://www.w3.org/2000/svg" xmlns:xlink="http://www.w3.org/1999/xlink" x="0px" y="0px"
	 width="283.46px" height="283.46px" viewBox="0 0 283.46 283.46" style="enable-background:new 0 0 283.46 283.46;"
	 xml:space="preserve">
<g id="instagram">
	<path d="M251.363,239.532c0,6.299-4.987,11.266-11.267,11.266H42.823c-6.279,0-11.266-4.967-11.266-11.266V119.947h26.024
		c-2.402,7.571-3.694,15.89-3.694,24.188c0,47.244,39.491,85.443,88.027,85.443c48.718,0,88.209-38.199,88.209-85.443
		c0-8.298-1.292-16.616-3.675-24.188h24.915l0,0V239.532z M198.95,141.188c0,30.446-25.479,55.179-57.036,55.179
		c-31.375,0-56.834-24.732-56.834-55.179c0-30.467,25.459-55.179,56.834-55.179C173.471,86.009,198.95,110.721,198.95,141.188z
		 M251.363,74.743c0,7.025-5.734,12.739-12.74,12.739h-32.122c-7.006,0-12.72-5.714-12.72-12.739V44.296
		c0-7.016,5.714-12.739,12.72-12.739l0,0h32.122c7.006,0,12.74,5.724,12.74,12.739V74.743z M283.465,36.362
		C283.465,16.425,267.03,0,247.103,0H36.362l0,0C16.435,0,0,16.425,0,36.362v210.74c0,19.928,16.435,36.362,36.362,36.362h210.741
		c19.928,0,36.362-16.435,36.362-36.362V36.362z"/>
</g>
<g id="Layer_1">
</g>
</svg>
