<?xml version="1.0" encoding="utf-8"?>
<!-- Generator: Adobe Illustrator 16.0.0, SVG Export Plug-In . SVG Version: 6.00 Build 0)  -->
<!DOCTYPE svg PUBLIC "-//W3C//DTD SVG 1.1//EN" "http://www.w3.org/Graphics/SVG/1.1/DTD/svg11.dtd">
<svg version="1.1" id="Layer_1" xmlns="http://www.w3.org/2000/svg" xmlns:xlink="http://www.w3.org/1999/xlink" x="0px" y="0px"
	 width="960px" height="560px" viewBox="0 0 960 560" enable-background="new 0 0 960 560" xml:space="preserve">
<path fill="#4D5144" d="M956,280.343L956,280.343c0-5-2.259-9.437-5.564-12.743L738.007,73.965
	c-5.564-4.436-12.74-5.566-19.354-2.783c-6.691,2.783-10.562,8.871-10.562,16.048v123.917H17.744C7.743,211.147,0,218.889,0,228.89
	v106.134c0,9.999,7.743,17.741,17.744,17.741H708.09v123.876c0,7.256,4.435,13.306,10.562,16.128
	c6.614,2.741,13.79,1.612,19.354-3.387l212.429-195.813C953.741,290.264,956,285.264,956,280.343z"/>
</svg>
