<?xml version="1.0" encoding="utf-8"?>
<!-- Generator: Adobe Illustrator 16.0.0, SVG Export Plug-In . SVG Version: 6.00 Build 0)  -->
<!DOCTYPE svg PUBLIC "-//W3C//DTD SVG 1.1//EN" "http://www.w3.org/Graphics/SVG/1.1/DTD/svg11.dtd">
<svg version="1.1" id="Layer_1" xmlns="http://www.w3.org/2000/svg" xmlns:xlink="http://www.w3.org/1999/xlink" x="0px" y="0px"
	 width="220px" height="220px" viewBox="0 0 220 220" enable-background="new 0 0 220 220" xml:space="preserve">
<path fill="#A0B477" d="M178.759,0H41.252C18.475,0,0,18.478,0,41.25v137.5C0,201.526,18.475,220,41.252,220h137.507
	c22.767,0,41.24-18.475,41.24-41.25V41.25C220,18.478,201.526,0,178.759,0z M183.333,151.25c0,7.592-6.158,13.75-13.742,13.75
	H50.418c-7.592,0-13.751-6.158-13.751-13.75V88.803c3.291,2.434,5.876,5.586,9.167,7.733c13.32,9.167,27.36,17.33,40.679,26.501
	c6.73,4.724,15.036,9.88,23.488,9.88l0,0l0,0l0,0l0,0c8.458,0,16.765-5.156,23.487-9.88c13.319-9.171,27.218-17.475,40.679-26.356
	c3.447-2.15,6.456-4.873,9.166-7.878V151.25z M183.333,69.181c0,7.161-8.446,15.756-14.04,19.478
	c-12.738,8.453-25.495,16.617-38.235,24.922c-5.436,3.581-14.462,10.17-21.057,10.17c-6.588,0-15.614-6.589-21.053-10.17
	c-12.605-8.305-25.643-16.186-38.241-24.636C44.69,84.937,36.667,76.483,36.667,68.75c0-7.592,6.159-13.75,13.751-13.75h119.173
	C177.615,55,183.333,61.444,183.333,69.181z"/>
</svg>
