<?xml version="1.0" encoding="utf-8"?>
<!-- Generator: Adobe Illustrator 16.0.0, SVG Export Plug-In . SVG Version: 6.00 Build 0)  -->
<!DOCTYPE svg PUBLIC "-//W3C//DTD SVG 1.1//EN" "http://www.w3.org/Graphics/SVG/1.1/DTD/svg11.dtd">
<svg version="1.1" id="Layer_1" xmlns="http://www.w3.org/2000/svg" xmlns:xlink="http://www.w3.org/1999/xlink" x="0px" y="0px"
	 width="283.46px" height="242.971px" viewBox="0 0 283.46 242.971" enable-background="new 0 0 283.46 242.971"
	 xml:space="preserve">
<g>
	<path fill="#BFBEBE" d="M251.207,53c5.576,0,10.287,4.711,10.287,10.288v124.517v0.205l0.004,0.205
		c0.067,3.293-1.711,5.61-2.776,6.698c-1.164,1.188-3.687,3.18-7.515,3.18H31.788c-5.577,0-10.288-4.711-10.288-10.288V63.288
		C21.5,57.712,26.211,53,31.788,53H251.207 M251.207,33H31.788C15.298,33,1.5,46.461,1.5,63.288v124.517
		c0,16.49,13.461,30.288,30.288,30.288h219.418c16.826,0,30.625-13.798,30.287-30.288V63.288C281.494,46.798,268.033,33,251.207,33
		L251.207,33z"/>
</g>
<path fill="none" stroke="#BFBEBE" stroke-width="20" stroke-linecap="round" stroke-miterlimit="10" d="M55.06,90.278
	l80.206,48.066c5.12,2.844,11.377,2.844,16.212-0.284l76.792-48.066"/>
</svg>
