<?xml version="1.0" encoding="utf-8"?>
<!-- Generator: Adobe Illustrator 16.0.0, SVG Export Plug-In . SVG Version: 6.00 Build 0)  -->
<!DOCTYPE svg PUBLIC "-//W3C//DTD SVG 1.1//EN" "http://www.w3.org/Graphics/SVG/1.1/DTD/svg11.dtd">
<svg version="1.1" id="Layer_1" xmlns="http://www.w3.org/2000/svg" xmlns:xlink="http://www.w3.org/1999/xlink" x="0px" y="0px"
	 width="283.46px" height="283.46px" viewBox="0 0 283.46 283.46" enable-background="new 0 0 283.46 283.46" xml:space="preserve">
<g id="Layer_1_1_">
</g>
<path fill="#A1B578" d="M262.077,37.959c2.255-4.298,1.403-9.449-2.056-12.707c-2.056-2.23-4.814-3.271-7.721-3.271
	c-1.756,0-3.458,0.351-5.013,1.204L27.061,133.117c-4.461,2.23-6.867,7.394-5.665,12.381c1.204,4.963,5.49,8.421,10.654,8.421
	h99.103v98.929c0,5.14,3.458,9.45,8.445,10.653c0.852,0.148,1.705,0.352,2.581,0.352c4.098,0,7.909-2.256,9.812-6.017
	L262.077,37.959z"/>
</svg>
