<?xml version="1.0" encoding="iso-8859-1"?>
<!-- Generator: Adobe Illustrator 16.0.0, SVG Export Plug-In . SVG Version: 6.00 Build 0)  -->
<!DOCTYPE svg PUBLIC "-//W3C//DTD SVG 1.1//EN" "http://www.w3.org/Graphics/SVG/1.1/DTD/svg11.dtd">
<svg version="1.1" xmlns="http://www.w3.org/2000/svg" xmlns:xlink="http://www.w3.org/1999/xlink" x="0px" y="0px"
	 width="283.46px" height="283.46px" viewBox="0 0 283.46 283.46" style="enable-background:new 0 0 283.46 283.46;"
	 xml:space="preserve">
<g id="time">
	<path style="fill:#e3934c;" d="M165.354,76.772c0-3.322-2.584-5.906-5.906-5.906h-11.811c-3.322,0-5.905,2.584-5.905,5.906v64.96
		h-41.339c-3.322,0-5.906,2.583-5.906,5.905v11.811c0,3.322,2.584,5.906,5.906,5.906h59.055c3.322,0,5.906-2.584,5.906-5.906V76.772
		z M242.126,141.732c0,55.364-45.029,100.394-100.394,100.394c-55.365,0-100.394-45.029-100.394-100.394
		c0-55.365,45.029-100.394,100.394-100.394C197.097,41.338,242.126,86.368,242.126,141.732z M283.465,141.732
		C283.465,63.484,219.98,0,141.732,0S0,63.484,0,141.732s63.484,141.732,141.732,141.732S283.465,219.98,283.465,141.732z"/>
</g>
<g id="Layer_1">
</g>
</svg>
