<?xml version="1.0" encoding="utf-8"?>
<!-- Generator: Adobe Illustrator 16.0.0, SVG Export Plug-In . SVG Version: 6.00 Build 0)  -->
<!DOCTYPE svg PUBLIC "-//W3C//DTD SVG 1.1//EN" "http://www.w3.org/Graphics/SVG/1.1/DTD/svg11.dtd">
<svg version="1.1" id="Layer_1" xmlns="http://www.w3.org/2000/svg" xmlns:xlink="http://www.w3.org/1999/xlink" x="0px" y="0px"
	 width="280px" height="280px" viewBox="-337.77 422.23 280 280" enable-background="new -337.77 422.23 280 280"
	 xml:space="preserve">
<g id="Layer_1_1_">
</g>
<path fill="#A0B477" d="M-174.448,497.937c0-3.281-2.55-5.83-5.842-5.83h-11.646c-3.292,0-5.841,2.549-5.841,5.83v64.047h-40.84
	c-3.265,0-5.814,2.549-5.814,5.844v11.629c0,3.293,2.549,5.844,5.814,5.844h58.327c3.292,0,5.842-2.551,5.842-5.844V497.937z
	 M-98.609,561.984c0,54.598-44.506,98.996-99.167,98.996c-54.674,0-99.153-44.398-99.153-98.996
	c0-54.581,44.479-98.992,99.153-98.992C-143.115,462.992-98.609,507.403-98.609,561.984z M-57.771,561.984
	c0-77.152-62.72-139.754-140.006-139.754c-77.298,0-139.994,62.602-139.994,139.754c0,77.168,62.695,139.781,139.994,139.781
	C-120.49,701.765-57.771,639.152-57.771,561.984z"/>
</svg>
